<svg xmlns="http://www.w3.org/2000/svg" xmlns:xlink="http://www.w3.org/1999/xlink" width="500" zoomAndPan="magnify" viewBox="0 0 375 374.999991" height="500" preserveAspectRatio="xMidYMid meet" version="1.0"><defs><g/><clipPath id="9c4afe20f5"><path d="M 64.054688 16.066406 L 310.804688 16.066406 L 310.804688 258.351562 L 64.054688 258.351562 Z M 64.054688 16.066406 " clip-rule="nonzero"/></clipPath></defs><rect x="-37.5" width="450" fill="#ffffff" y="-37.499999" height="449.999989" fill-opacity="1"/><rect x="-37.5" width="450" fill="#fcf9f0" y="-37.499999" height="449.999989" fill-opacity="1"/><g fill="#413757" fill-opacity="1"><g transform="translate(60.930585, 319.754055)"><g><path d="M 13.8125 -4.78125 C 13.8125 -3.53125 13.601562 -2.585938 13.1875 -1.953125 C 12.769531 -1.328125 11.882812 -1.015625 10.53125 -1.015625 C 9.914062 -1.015625 9.304688 -1.03125 8.703125 -1.0625 C 8.097656 -1.101562 7.507812 -1.285156 6.9375 -1.609375 C 6.25 -2.003906 5.691406 -2.773438 5.265625 -3.921875 C 4.835938 -5.066406 4.5 -6.398438 4.25 -7.921875 C 4 -9.441406 3.816406 -10.988281 3.703125 -12.5625 C 3.597656 -14.144531 3.535156 -15.609375 3.515625 -16.953125 C 3.492188 -18.296875 3.484375 -19.34375 3.484375 -20.09375 C 3.484375 -21.019531 3.507812 -22.160156 3.5625 -23.515625 C 3.625 -24.878906 3.707031 -26.3125 3.8125 -27.8125 C 3.914062 -29.320312 4.09375 -30.738281 4.34375 -32.0625 C 4.601562 -33.394531 4.910156 -34.453125 5.265625 -35.234375 C 5.546875 -35.804688 5.894531 -36.316406 6.3125 -36.765625 C 6.726562 -37.210938 7.238281 -37.523438 7.84375 -37.703125 C 8.414062 -37.890625 9.003906 -38.015625 9.609375 -38.078125 C 10.222656 -38.148438 10.816406 -38.1875 11.390625 -38.1875 C 11.816406 -38.1875 12.234375 -38.148438 12.640625 -38.078125 C 13.054688 -38.015625 13.460938 -37.890625 13.859375 -37.703125 C 14.429688 -37.453125 14.984375 -36.851562 15.515625 -35.90625 C 16.054688 -34.957031 16.578125 -33.8125 17.078125 -32.46875 C 17.578125 -31.125 18.066406 -29.742188 18.546875 -28.328125 C 19.035156 -26.921875 19.515625 -25.585938 19.984375 -24.328125 C 20.453125 -23.078125 20.925781 -22.066406 21.40625 -21.296875 C 21.882812 -20.523438 22.359375 -20.140625 22.828125 -20.140625 C 23.546875 -20.140625 24.226562 -20.625 24.875 -21.59375 C 25.519531 -22.5625 26.128906 -23.78125 26.703125 -25.25 C 27.273438 -26.71875 27.828125 -28.238281 28.359375 -29.8125 C 28.898438 -31.382812 29.421875 -32.816406 29.921875 -34.109375 C 30.421875 -35.398438 30.90625 -36.3125 31.375 -36.84375 C 32.050781 -37.601562 32.890625 -38.015625 33.890625 -38.078125 C 34.898438 -38.148438 35.851562 -38.1875 36.75 -38.1875 C 37.675781 -38.1875 38.5 -38.007812 39.21875 -37.65625 C 39.9375 -37.300781 40.507812 -36.691406 40.9375 -35.828125 C 41.65625 -34.472656 42.164062 -32.914062 42.46875 -31.15625 C 42.769531 -29.40625 42.957031 -27.632812 43.03125 -25.84375 C 43.101562 -24.050781 43.140625 -22.382812 43.140625 -20.84375 C 43.140625 -20.269531 43.144531 -19.695312 43.15625 -19.125 C 43.175781 -18.550781 43.1875 -17.957031 43.1875 -17.34375 C 43.1875 -16.3125 43.160156 -15.097656 43.109375 -13.703125 C 43.054688 -12.304688 42.929688 -10.878906 42.734375 -9.421875 C 42.535156 -7.972656 42.226562 -6.617188 41.8125 -5.359375 C 41.40625 -4.109375 40.84375 -3.070312 40.125 -2.25 C 39.519531 -1.570312 38.859375 -1.207031 38.140625 -1.15625 C 37.421875 -1.101562 36.613281 -1.078125 35.71875 -1.078125 C 34.4375 -1.078125 33.585938 -1.367188 33.171875 -1.953125 C 32.753906 -2.546875 32.546875 -3.453125 32.546875 -4.671875 C 32.546875 -6.679688 32.582031 -8.675781 32.65625 -10.65625 C 32.726562 -12.644531 32.765625 -14.625 32.765625 -16.59375 C 32.765625 -16.988281 32.71875 -17.363281 32.625 -17.71875 C 32.539062 -18.082031 32.460938 -18.441406 32.390625 -18.796875 C 31.859375 -18.796875 31.445312 -18.445312 31.15625 -17.75 C 30.875 -17.050781 30.585938 -16.179688 30.296875 -15.140625 C 30.015625 -14.109375 29.617188 -13.070312 29.109375 -12.03125 C 28.609375 -10.988281 27.882812 -10.117188 26.9375 -9.421875 C 25.988281 -8.722656 24.691406 -8.375 23.046875 -8.375 C 21.609375 -8.375 20.429688 -8.722656 19.515625 -9.421875 C 18.609375 -10.117188 17.882812 -10.976562 17.34375 -12 C 16.8125 -13.019531 16.382812 -14.050781 16.0625 -15.09375 C 15.738281 -16.132812 15.441406 -17.003906 15.171875 -17.703125 C 14.898438 -18.398438 14.570312 -18.75 14.1875 -18.75 C 14 -18.644531 13.859375 -18.210938 13.765625 -17.453125 C 13.679688 -16.703125 13.640625 -15.941406 13.640625 -15.171875 C 13.640625 -14.398438 13.640625 -13.875 13.640625 -13.59375 C 13.640625 -12.15625 13.664062 -10.691406 13.71875 -9.203125 C 13.78125 -7.722656 13.8125 -6.25 13.8125 -4.78125 Z M 13.8125 -4.78125 "/></g></g></g><g fill="#413757" fill-opacity="1"><g transform="translate(104.763334, 319.754055)"><g><path d="M -0.109375 -44.640625 L -0.109375 -45.71875 C -0.109375 -46.644531 0.210938 -47.375 0.859375 -47.90625 C 1.503906 -48.445312 2.3125 -48.832031 3.28125 -49.0625 C 4.25 -49.300781 5.222656 -49.445312 6.203125 -49.5 C 7.191406 -49.550781 8.007812 -49.578125 8.65625 -49.578125 L 12.296875 -49.578125 C 13.265625 -49.578125 14.25 -49.539062 15.25 -49.46875 C 16.257812 -49.40625 17.191406 -49.21875 18.046875 -48.90625 C 18.910156 -48.601562 19.597656 -48.101562 20.109375 -47.40625 C 20.628906 -46.707031 20.890625 -45.710938 20.890625 -44.421875 C 20.890625 -43.671875 20.59375 -43.175781 20 -42.9375 C 19.414062 -42.707031 18.816406 -42.59375 18.203125 -42.59375 L 2.46875 -42.59375 C 1.789062 -42.59375 1.191406 -42.734375 0.671875 -43.015625 C 0.148438 -43.304688 -0.109375 -43.847656 -0.109375 -44.640625 Z M 9.78125 -38.625 L 11.5 -38.625 C 12.144531 -38.625 12.742188 -38.503906 13.296875 -38.265625 C 13.847656 -38.035156 14.304688 -37.671875 14.671875 -37.171875 C 15.421875 -36.171875 15.921875 -34.953125 16.171875 -33.515625 C 16.421875 -32.085938 16.546875 -30.742188 16.546875 -29.484375 L 16.546875 -17.9375 C 16.546875 -17.1875 16.523438 -16.117188 16.484375 -14.734375 C 16.453125 -13.359375 16.390625 -11.890625 16.296875 -10.328125 C 16.210938 -8.773438 16.070312 -7.34375 15.875 -6.03125 C 15.675781 -4.726562 15.4375 -3.753906 15.15625 -3.109375 C 14.9375 -2.648438 14.65625 -2.257812 14.3125 -1.9375 C 13.976562 -1.613281 13.554688 -1.363281 13.046875 -1.1875 C 12.515625 -1.039062 11.96875 -0.941406 11.40625 -0.890625 C 10.851562 -0.835938 10.3125 -0.8125 9.78125 -0.8125 C 9.457031 -0.8125 9.109375 -0.828125 8.734375 -0.859375 C 8.359375 -0.890625 8.023438 -0.960938 7.734375 -1.078125 C 6.941406 -1.359375 6.3125 -2.070312 5.84375 -3.21875 C 5.382812 -4.363281 5.03125 -5.742188 4.78125 -7.359375 C 4.53125 -8.972656 4.359375 -10.628906 4.265625 -12.328125 C 4.179688 -14.023438 4.128906 -15.582031 4.109375 -17 C 4.085938 -18.414062 4.078125 -19.484375 4.078125 -20.203125 C 4.078125 -21.023438 4.09375 -21.863281 4.125 -22.71875 C 4.164062 -23.582031 4.1875 -24.425781 4.1875 -25.25 C 4.1875 -26.03125 4.175781 -26.804688 4.15625 -27.578125 C 4.144531 -28.347656 4.140625 -29.113281 4.140625 -29.875 C 4.140625 -31.15625 4.269531 -32.476562 4.53125 -33.84375 C 4.800781 -35.207031 5.347656 -36.34375 6.171875 -37.25 C 6.992188 -38.164062 8.195312 -38.625 9.78125 -38.625 Z M 9.78125 -38.625 "/></g></g></g><g fill="#413757" fill-opacity="1"><g transform="translate(122.811929, 319.754055)"><g><path d="M 13.8125 -4.78125 C 13.8125 -3.53125 13.601562 -2.585938 13.1875 -1.953125 C 12.769531 -1.328125 11.882812 -1.015625 10.53125 -1.015625 C 9.914062 -1.015625 9.304688 -1.03125 8.703125 -1.0625 C 8.097656 -1.101562 7.507812 -1.285156 6.9375 -1.609375 C 6.25 -2.003906 5.691406 -2.773438 5.265625 -3.921875 C 4.835938 -5.066406 4.5 -6.398438 4.25 -7.921875 C 4 -9.441406 3.816406 -10.988281 3.703125 -12.5625 C 3.597656 -14.144531 3.535156 -15.609375 3.515625 -16.953125 C 3.492188 -18.296875 3.484375 -19.34375 3.484375 -20.09375 C 3.484375 -21.019531 3.507812 -22.160156 3.5625 -23.515625 C 3.625 -24.878906 3.707031 -26.3125 3.8125 -27.8125 C 3.914062 -29.320312 4.09375 -30.738281 4.34375 -32.0625 C 4.601562 -33.394531 4.910156 -34.453125 5.265625 -35.234375 C 5.546875 -35.804688 5.894531 -36.316406 6.3125 -36.765625 C 6.726562 -37.210938 7.238281 -37.523438 7.84375 -37.703125 C 8.414062 -37.890625 9.003906 -38.015625 9.609375 -38.078125 C 10.222656 -38.148438 10.816406 -38.1875 11.390625 -38.1875 C 11.816406 -38.1875 12.234375 -38.148438 12.640625 -38.078125 C 13.054688 -38.015625 13.460938 -37.890625 13.859375 -37.703125 C 14.429688 -37.453125 14.984375 -36.851562 15.515625 -35.90625 C 16.054688 -34.957031 16.578125 -33.8125 17.078125 -32.46875 C 17.578125 -31.125 18.066406 -29.742188 18.546875 -28.328125 C 19.035156 -26.921875 19.515625 -25.585938 19.984375 -24.328125 C 20.453125 -23.078125 20.925781 -22.066406 21.40625 -21.296875 C 21.882812 -20.523438 22.359375 -20.140625 22.828125 -20.140625 C 23.546875 -20.140625 24.226562 -20.625 24.875 -21.59375 C 25.519531 -22.5625 26.128906 -23.78125 26.703125 -25.25 C 27.273438 -26.71875 27.828125 -28.238281 28.359375 -29.8125 C 28.898438 -31.382812 29.421875 -32.816406 29.921875 -34.109375 C 30.421875 -35.398438 30.90625 -36.3125 31.375 -36.84375 C 32.050781 -37.601562 32.890625 -38.015625 33.890625 -38.078125 C 34.898438 -38.148438 35.851562 -38.1875 36.75 -38.1875 C 37.675781 -38.1875 38.5 -38.007812 39.21875 -37.65625 C 39.9375 -37.300781 40.507812 -36.691406 40.9375 -35.828125 C 41.65625 -34.472656 42.164062 -32.914062 42.46875 -31.15625 C 42.769531 -29.40625 42.957031 -27.632812 43.03125 -25.84375 C 43.101562 -24.050781 43.140625 -22.382812 43.140625 -20.84375 C 43.140625 -20.269531 43.144531 -19.695312 43.15625 -19.125 C 43.175781 -18.550781 43.1875 -17.957031 43.1875 -17.34375 C 43.1875 -16.3125 43.160156 -15.097656 43.109375 -13.703125 C 43.054688 -12.304688 42.929688 -10.878906 42.734375 -9.421875 C 42.535156 -7.972656 42.226562 -6.617188 41.8125 -5.359375 C 41.40625 -4.109375 40.84375 -3.070312 40.125 -2.25 C 39.519531 -1.570312 38.859375 -1.207031 38.140625 -1.15625 C 37.421875 -1.101562 36.613281 -1.078125 35.71875 -1.078125 C 34.4375 -1.078125 33.585938 -1.367188 33.171875 -1.953125 C 32.753906 -2.546875 32.546875 -3.453125 32.546875 -4.671875 C 32.546875 -6.679688 32.582031 -8.675781 32.65625 -10.65625 C 32.726562 -12.644531 32.765625 -14.625 32.765625 -16.59375 C 32.765625 -16.988281 32.71875 -17.363281 32.625 -17.71875 C 32.539062 -18.082031 32.460938 -18.441406 32.390625 -18.796875 C 31.859375 -18.796875 31.445312 -18.445312 31.15625 -17.75 C 30.875 -17.050781 30.585938 -16.179688 30.296875 -15.140625 C 30.015625 -14.109375 29.617188 -13.070312 29.109375 -12.03125 C 28.609375 -10.988281 27.882812 -10.117188 26.9375 -9.421875 C 25.988281 -8.722656 24.691406 -8.375 23.046875 -8.375 C 21.609375 -8.375 20.429688 -8.722656 19.515625 -9.421875 C 18.609375 -10.117188 17.882812 -10.976562 17.34375 -12 C 16.8125 -13.019531 16.382812 -14.050781 16.0625 -15.09375 C 15.738281 -16.132812 15.441406 -17.003906 15.171875 -17.703125 C 14.898438 -18.398438 14.570312 -18.75 14.1875 -18.75 C 14 -18.644531 13.859375 -18.210938 13.765625 -17.453125 C 13.679688 -16.703125 13.640625 -15.941406 13.640625 -15.171875 C 13.640625 -14.398438 13.640625 -13.875 13.640625 -13.59375 C 13.640625 -12.15625 13.664062 -10.691406 13.71875 -9.203125 C 13.78125 -7.722656 13.8125 -6.25 13.8125 -4.78125 Z M 13.8125 -4.78125 "/></g></g></g><g fill="#413757" fill-opacity="1"><g transform="translate(166.644673, 319.754055)"><g><path d="M 15.15625 -49.640625 L 22.890625 -49.640625 C 23.421875 -49.640625 24.0625 -49.601562 24.8125 -49.53125 C 25.570312 -49.457031 26.304688 -49.300781 27.015625 -49.0625 C 27.734375 -48.832031 28.320312 -48.503906 28.78125 -48.078125 C 29.25 -47.648438 29.484375 -47.0625 29.484375 -46.3125 L 29.484375 -45.015625 C 29.484375 -44.410156 29.273438 -43.945312 28.859375 -43.625 C 28.453125 -43.300781 27.972656 -43.082031 27.421875 -42.96875 C 26.867188 -42.863281 26.34375 -42.8125 25.84375 -42.8125 L 11.921875 -42.8125 C 11.140625 -42.8125 10.367188 -42.945312 9.609375 -43.21875 C 8.859375 -43.488281 8.484375 -44.101562 8.484375 -45.0625 C 8.484375 -46.5 8.804688 -47.53125 9.453125 -48.15625 C 10.097656 -48.78125 10.929688 -49.179688 11.953125 -49.359375 C 12.972656 -49.546875 14.039062 -49.640625 15.15625 -49.640625 Z M 3.21875 -5.3125 C 3.21875 -6.175781 3.390625 -7.410156 3.734375 -9.015625 C 4.078125 -10.628906 4.539062 -12.46875 5.125 -14.53125 C 5.71875 -16.59375 6.363281 -18.722656 7.0625 -20.921875 C 7.757812 -23.128906 8.484375 -25.234375 9.234375 -27.234375 C 9.992188 -29.242188 10.703125 -31.007812 11.359375 -32.53125 C 12.023438 -34.050781 12.609375 -35.148438 13.109375 -35.828125 C 13.710938 -36.648438 14.390625 -37.347656 15.140625 -37.921875 C 15.898438 -38.492188 16.816406 -38.78125 17.890625 -38.78125 C 18.640625 -38.78125 19.414062 -38.757812 20.21875 -38.71875 C 21.03125 -38.6875 21.773438 -38.53125 22.453125 -38.25 C 23.097656 -37.957031 23.804688 -37.238281 24.578125 -36.09375 C 25.347656 -34.945312 26.125 -33.492188 26.90625 -31.734375 C 27.695312 -29.984375 28.476562 -28.0625 29.25 -25.96875 C 30.019531 -23.875 30.742188 -21.753906 31.421875 -19.609375 C 32.109375 -17.460938 32.707031 -15.410156 33.21875 -13.453125 C 33.738281 -11.503906 34.140625 -9.773438 34.421875 -8.265625 C 34.710938 -6.765625 34.859375 -5.640625 34.859375 -4.890625 C 34.859375 -3.921875 34.582031 -3.1875 34.03125 -2.6875 C 33.476562 -2.1875 32.78125 -1.828125 31.9375 -1.609375 C 31.09375 -1.398438 30.234375 -1.273438 29.359375 -1.234375 C 28.484375 -1.203125 27.703125 -1.1875 27.015625 -1.1875 C 26.660156 -1.1875 26.335938 -1.25 26.046875 -1.375 C 25.765625 -1.5 25.535156 -1.722656 25.359375 -2.046875 C 25.035156 -2.691406 24.828125 -3.378906 24.734375 -4.109375 C 24.648438 -4.835938 24.515625 -5.546875 24.328125 -6.234375 C 24.148438 -6.910156 23.796875 -7.394531 23.265625 -7.6875 C 22.972656 -7.863281 22.488281 -7.988281 21.8125 -8.0625 C 21.132812 -8.132812 20.441406 -8.175781 19.734375 -8.1875 C 19.035156 -8.207031 18.507812 -8.21875 18.15625 -8.21875 C 17.6875 -8.21875 17.078125 -8.21875 16.328125 -8.21875 C 15.578125 -8.21875 15.003906 -8.054688 14.609375 -7.734375 C 14.003906 -7.265625 13.628906 -6.660156 13.484375 -5.921875 C 13.335938 -5.191406 13.191406 -4.476562 13.046875 -3.78125 C 12.910156 -3.082031 12.609375 -2.492188 12.140625 -2.015625 C 11.671875 -1.535156 10.8125 -1.296875 9.5625 -1.296875 C 8.488281 -1.296875 7.46875 -1.335938 6.5 -1.421875 C 5.53125 -1.515625 4.738281 -1.835938 4.125 -2.390625 C 3.519531 -2.941406 3.21875 -3.914062 3.21875 -5.3125 Z M 18.640625 -15.84375 L 19.71875 -15.84375 C 20.21875 -15.84375 20.65625 -16.015625 21.03125 -16.359375 C 21.40625 -16.703125 21.59375 -17.140625 21.59375 -17.671875 C 21.59375 -17.960938 21.507812 -18.582031 21.34375 -19.53125 C 21.1875 -20.476562 20.984375 -21.5 20.734375 -22.59375 C 20.484375 -23.6875 20.207031 -24.625 19.90625 -25.40625 C 19.601562 -26.195312 19.289062 -26.59375 18.96875 -26.59375 C 18.601562 -26.59375 18.257812 -26.195312 17.9375 -25.40625 C 17.613281 -24.625 17.328125 -23.6875 17.078125 -22.59375 C 16.828125 -21.5 16.617188 -20.484375 16.453125 -19.546875 C 16.296875 -18.617188 16.21875 -17.992188 16.21875 -17.671875 C 16.21875 -16.953125 16.46875 -16.46875 16.96875 -16.21875 C 17.476562 -15.96875 18.035156 -15.84375 18.640625 -15.84375 Z M 18.640625 -15.84375 "/></g></g></g><g fill="#413757" fill-opacity="1"><g transform="translate(201.88271, 319.754055)"><g><path d="M 13.8125 -4.78125 C 13.8125 -3.53125 13.601562 -2.585938 13.1875 -1.953125 C 12.769531 -1.328125 11.882812 -1.015625 10.53125 -1.015625 C 9.914062 -1.015625 9.304688 -1.03125 8.703125 -1.0625 C 8.097656 -1.101562 7.507812 -1.285156 6.9375 -1.609375 C 6.25 -2.003906 5.691406 -2.773438 5.265625 -3.921875 C 4.835938 -5.066406 4.5 -6.398438 4.25 -7.921875 C 4 -9.441406 3.816406 -10.988281 3.703125 -12.5625 C 3.597656 -14.144531 3.535156 -15.609375 3.515625 -16.953125 C 3.492188 -18.296875 3.484375 -19.34375 3.484375 -20.09375 C 3.484375 -21.019531 3.507812 -22.160156 3.5625 -23.515625 C 3.625 -24.878906 3.707031 -26.3125 3.8125 -27.8125 C 3.914062 -29.320312 4.09375 -30.738281 4.34375 -32.0625 C 4.601562 -33.394531 4.910156 -34.453125 5.265625 -35.234375 C 5.546875 -35.804688 5.894531 -36.316406 6.3125 -36.765625 C 6.726562 -37.210938 7.238281 -37.523438 7.84375 -37.703125 C 8.414062 -37.890625 9.003906 -38.015625 9.609375 -38.078125 C 10.222656 -38.148438 10.816406 -38.1875 11.390625 -38.1875 C 11.816406 -38.1875 12.234375 -38.148438 12.640625 -38.078125 C 13.054688 -38.015625 13.460938 -37.890625 13.859375 -37.703125 C 14.429688 -37.453125 14.984375 -36.851562 15.515625 -35.90625 C 16.054688 -34.957031 16.578125 -33.8125 17.078125 -32.46875 C 17.578125 -31.125 18.066406 -29.742188 18.546875 -28.328125 C 19.035156 -26.921875 19.515625 -25.585938 19.984375 -24.328125 C 20.453125 -23.078125 20.925781 -22.066406 21.40625 -21.296875 C 21.882812 -20.523438 22.359375 -20.140625 22.828125 -20.140625 C 23.546875 -20.140625 24.226562 -20.625 24.875 -21.59375 C 25.519531 -22.5625 26.128906 -23.78125 26.703125 -25.25 C 27.273438 -26.71875 27.828125 -28.238281 28.359375 -29.8125 C 28.898438 -31.382812 29.421875 -32.816406 29.921875 -34.109375 C 30.421875 -35.398438 30.90625 -36.3125 31.375 -36.84375 C 32.050781 -37.601562 32.890625 -38.015625 33.890625 -38.078125 C 34.898438 -38.148438 35.851562 -38.1875 36.75 -38.1875 C 37.675781 -38.1875 38.5 -38.007812 39.21875 -37.65625 C 39.9375 -37.300781 40.507812 -36.691406 40.9375 -35.828125 C 41.65625 -34.472656 42.164062 -32.914062 42.46875 -31.15625 C 42.769531 -29.40625 42.957031 -27.632812 43.03125 -25.84375 C 43.101562 -24.050781 43.140625 -22.382812 43.140625 -20.84375 C 43.140625 -20.269531 43.144531 -19.695312 43.15625 -19.125 C 43.175781 -18.550781 43.1875 -17.957031 43.1875 -17.34375 C 43.1875 -16.3125 43.160156 -15.097656 43.109375 -13.703125 C 43.054688 -12.304688 42.929688 -10.878906 42.734375 -9.421875 C 42.535156 -7.972656 42.226562 -6.617188 41.8125 -5.359375 C 41.40625 -4.109375 40.84375 -3.070312 40.125 -2.25 C 39.519531 -1.570312 38.859375 -1.207031 38.140625 -1.15625 C 37.421875 -1.101562 36.613281 -1.078125 35.71875 -1.078125 C 34.4375 -1.078125 33.585938 -1.367188 33.171875 -1.953125 C 32.753906 -2.546875 32.546875 -3.453125 32.546875 -4.671875 C 32.546875 -6.679688 32.582031 -8.675781 32.65625 -10.65625 C 32.726562 -12.644531 32.765625 -14.625 32.765625 -16.59375 C 32.765625 -16.988281 32.71875 -17.363281 32.625 -17.71875 C 32.539062 -18.082031 32.460938 -18.441406 32.390625 -18.796875 C 31.859375 -18.796875 31.445312 -18.445312 31.15625 -17.75 C 30.875 -17.050781 30.585938 -16.179688 30.296875 -15.140625 C 30.015625 -14.109375 29.617188 -13.070312 29.109375 -12.03125 C 28.609375 -10.988281 27.882812 -10.117188 26.9375 -9.421875 C 25.988281 -8.722656 24.691406 -8.375 23.046875 -8.375 C 21.609375 -8.375 20.429688 -8.722656 19.515625 -9.421875 C 18.609375 -10.117188 17.882812 -10.976562 17.34375 -12 C 16.8125 -13.019531 16.382812 -14.050781 16.0625 -15.09375 C 15.738281 -16.132812 15.441406 -17.003906 15.171875 -17.703125 C 14.898438 -18.398438 14.570312 -18.75 14.1875 -18.75 C 14 -18.644531 13.859375 -18.210938 13.765625 -17.453125 C 13.679688 -16.703125 13.640625 -15.941406 13.640625 -15.171875 C 13.640625 -14.398438 13.640625 -13.875 13.640625 -13.59375 C 13.640625 -12.15625 13.664062 -10.691406 13.71875 -9.203125 C 13.78125 -7.722656 13.8125 -6.25 13.8125 -4.78125 Z M 13.8125 -4.78125 "/></g></g></g><g fill="#413757" fill-opacity="1"><g transform="translate(245.715463, 319.754055)"><g><path d="M 17.40625 -31 C 16.4375 -31 15.539062 -30.789062 14.71875 -30.375 C 13.894531 -29.96875 13.484375 -29.191406 13.484375 -28.046875 C 13.484375 -27.148438 13.894531 -26.40625 14.71875 -25.8125 C 15.539062 -25.21875 16.601562 -24.6875 17.90625 -24.21875 C 19.21875 -23.757812 20.613281 -23.257812 22.09375 -22.71875 C 23.582031 -22.1875 24.976562 -21.507812 26.28125 -20.6875 C 27.59375 -19.863281 28.660156 -18.804688 29.484375 -17.515625 C 30.316406 -16.222656 30.734375 -14.59375 30.734375 -12.625 C 30.734375 -10.082031 30.0625 -7.859375 28.71875 -5.953125 C 27.375 -4.054688 25.632812 -2.597656 23.5 -1.578125 C 21.375 -0.554688 19.09375 -0.046875 16.65625 -0.046875 C 14.863281 -0.046875 13.175781 -0.144531 11.59375 -0.34375 C 10.019531 -0.539062 8.632812 -0.960938 7.4375 -1.609375 C 6.238281 -2.253906 5.296875 -3.210938 4.609375 -4.484375 C 3.929688 -5.753906 3.59375 -7.460938 3.59375 -9.609375 C 3.59375 -9.859375 3.628906 -10.082031 3.703125 -10.28125 C 3.773438 -10.476562 3.957031 -10.578125 4.25 -10.578125 C 5.070312 -10.578125 5.894531 -10.441406 6.71875 -10.171875 C 7.539062 -9.910156 8.34375 -9.65625 9.125 -9.40625 C 10.09375 -9.113281 11.078125 -8.84375 12.078125 -8.59375 C 13.085938 -8.34375 14.09375 -8.21875 15.09375 -8.21875 C 15.769531 -8.21875 16.445312 -8.304688 17.125 -8.484375 C 17.8125 -8.660156 18.382812 -8.984375 18.84375 -9.453125 C 19.3125 -9.921875 19.546875 -10.546875 19.546875 -11.328125 C 19.546875 -12.472656 19.132812 -13.332031 18.3125 -13.90625 C 17.632812 -14.414062 16.898438 -14.765625 16.109375 -14.953125 C 15.328125 -15.148438 14.539062 -15.359375 13.75 -15.578125 C 12.425781 -15.972656 11.101562 -16.519531 9.78125 -17.21875 C 8.457031 -17.914062 7.238281 -18.753906 6.125 -19.734375 C 5.007812 -20.722656 4.113281 -21.851562 3.4375 -23.125 C 2.757812 -24.394531 2.421875 -25.785156 2.421875 -27.296875 C 2.421875 -29.265625 2.835938 -30.984375 3.671875 -32.453125 C 4.515625 -33.921875 5.644531 -35.144531 7.0625 -36.125 C 8.476562 -37.113281 10.046875 -37.847656 11.765625 -38.328125 C 13.484375 -38.804688 15.21875 -39.046875 16.96875 -39.046875 C 18.625 -39.046875 20.191406 -38.992188 21.671875 -38.890625 C 23.160156 -38.785156 24.484375 -38.484375 25.640625 -37.984375 C 26.804688 -37.484375 27.726562 -36.648438 28.40625 -35.484375 C 29.09375 -34.316406 29.4375 -32.695312 29.4375 -30.625 C 29.4375 -29.726562 28.972656 -29.28125 28.046875 -29.28125 C 27.253906 -29.28125 26.453125 -29.378906 25.640625 -29.578125 C 24.835938 -29.773438 24.0625 -29.960938 23.3125 -30.140625 C 22.34375 -30.347656 21.363281 -30.539062 20.375 -30.71875 C 19.394531 -30.90625 18.40625 -31 17.40625 -31 Z M 17.40625 -31 "/></g></g></g><g fill="#413757" fill-opacity="1"><g transform="translate(276.118975, 319.754055)"><g><path d="M 15.15625 -49.640625 L 22.890625 -49.640625 C 23.421875 -49.640625 24.0625 -49.601562 24.8125 -49.53125 C 25.570312 -49.457031 26.304688 -49.300781 27.015625 -49.0625 C 27.734375 -48.832031 28.320312 -48.503906 28.78125 -48.078125 C 29.25 -47.648438 29.484375 -47.0625 29.484375 -46.3125 L 29.484375 -45.015625 C 29.484375 -44.410156 29.273438 -43.945312 28.859375 -43.625 C 28.453125 -43.300781 27.972656 -43.082031 27.421875 -42.96875 C 26.867188 -42.863281 26.34375 -42.8125 25.84375 -42.8125 L 11.921875 -42.8125 C 11.140625 -42.8125 10.367188 -42.945312 9.609375 -43.21875 C 8.859375 -43.488281 8.484375 -44.101562 8.484375 -45.0625 C 8.484375 -46.5 8.804688 -47.53125 9.453125 -48.15625 C 10.097656 -48.78125 10.929688 -49.179688 11.953125 -49.359375 C 12.972656 -49.546875 14.039062 -49.640625 15.15625 -49.640625 Z M 3.21875 -5.3125 C 3.21875 -6.175781 3.390625 -7.410156 3.734375 -9.015625 C 4.078125 -10.628906 4.539062 -12.46875 5.125 -14.53125 C 5.71875 -16.59375 6.363281 -18.722656 7.0625 -20.921875 C 7.757812 -23.128906 8.484375 -25.234375 9.234375 -27.234375 C 9.992188 -29.242188 10.703125 -31.007812 11.359375 -32.53125 C 12.023438 -34.050781 12.609375 -35.148438 13.109375 -35.828125 C 13.710938 -36.648438 14.390625 -37.347656 15.140625 -37.921875 C 15.898438 -38.492188 16.816406 -38.78125 17.890625 -38.78125 C 18.640625 -38.78125 19.414062 -38.757812 20.21875 -38.71875 C 21.03125 -38.6875 21.773438 -38.53125 22.453125 -38.25 C 23.097656 -37.957031 23.804688 -37.238281 24.578125 -36.09375 C 25.347656 -34.945312 26.125 -33.492188 26.90625 -31.734375 C 27.695312 -29.984375 28.476562 -28.0625 29.25 -25.96875 C 30.019531 -23.875 30.742188 -21.753906 31.421875 -19.609375 C 32.109375 -17.460938 32.707031 -15.410156 33.21875 -13.453125 C 33.738281 -11.503906 34.140625 -9.773438 34.421875 -8.265625 C 34.710938 -6.765625 34.859375 -5.640625 34.859375 -4.890625 C 34.859375 -3.921875 34.582031 -3.1875 34.03125 -2.6875 C 33.476562 -2.1875 32.78125 -1.828125 31.9375 -1.609375 C 31.09375 -1.398438 30.234375 -1.273438 29.359375 -1.234375 C 28.484375 -1.203125 27.703125 -1.1875 27.015625 -1.1875 C 26.660156 -1.1875 26.335938 -1.25 26.046875 -1.375 C 25.765625 -1.5 25.535156 -1.722656 25.359375 -2.046875 C 25.035156 -2.691406 24.828125 -3.378906 24.734375 -4.109375 C 24.648438 -4.835938 24.515625 -5.546875 24.328125 -6.234375 C 24.148438 -6.910156 23.796875 -7.394531 23.265625 -7.6875 C 22.972656 -7.863281 22.488281 -7.988281 21.8125 -8.0625 C 21.132812 -8.132812 20.441406 -8.175781 19.734375 -8.1875 C 19.035156 -8.207031 18.507812 -8.21875 18.15625 -8.21875 C 17.6875 -8.21875 17.078125 -8.21875 16.328125 -8.21875 C 15.578125 -8.21875 15.003906 -8.054688 14.609375 -7.734375 C 14.003906 -7.265625 13.628906 -6.660156 13.484375 -5.921875 C 13.335938 -5.191406 13.191406 -4.476562 13.046875 -3.78125 C 12.910156 -3.082031 12.609375 -2.492188 12.140625 -2.015625 C 11.671875 -1.535156 10.8125 -1.296875 9.5625 -1.296875 C 8.488281 -1.296875 7.46875 -1.335938 6.5 -1.421875 C 5.53125 -1.515625 4.738281 -1.835938 4.125 -2.390625 C 3.519531 -2.941406 3.21875 -3.914062 3.21875 -5.3125 Z M 18.640625 -15.84375 L 19.71875 -15.84375 C 20.21875 -15.84375 20.65625 -16.015625 21.03125 -16.359375 C 21.40625 -16.703125 21.59375 -17.140625 21.59375 -17.671875 C 21.59375 -17.960938 21.507812 -18.582031 21.34375 -19.53125 C 21.1875 -20.476562 20.984375 -21.5 20.734375 -22.59375 C 20.484375 -23.6875 20.207031 -24.625 19.90625 -25.40625 C 19.601562 -26.195312 19.289062 -26.59375 18.96875 -26.59375 C 18.601562 -26.59375 18.257812 -26.195312 17.9375 -25.40625 C 17.613281 -24.625 17.328125 -23.6875 17.078125 -22.59375 C 16.828125 -21.5 16.617188 -20.484375 16.453125 -19.546875 C 16.296875 -18.617188 16.21875 -17.992188 16.21875 -17.671875 C 16.21875 -16.953125 16.46875 -16.46875 16.96875 -16.21875 C 17.476562 -15.96875 18.035156 -15.84375 18.640625 -15.84375 Z M 18.640625 -15.84375 "/></g></g></g><g fill="#413757" fill-opacity="1"><g transform="translate(66.103172, 360.601622)"><g><path d="M 12.859375 -4.9375 C 13.640625 -4.9375 14.40625 -5.054688 15.15625 -5.296875 C 15.90625 -5.546875 16.671875 -5.671875 17.453125 -5.671875 C 17.804688 -5.671875 18.082031 -5.609375 18.28125 -5.484375 C 18.488281 -5.359375 18.59375 -5.09375 18.59375 -4.6875 C 18.59375 -4.414062 18.578125 -4.0625 18.546875 -3.625 C 18.515625 -3.195312 18.453125 -2.78125 18.359375 -2.375 C 18.265625 -1.976562 18.109375 -1.671875 17.890625 -1.453125 C 17.640625 -1.203125 17.238281 -0.984375 16.6875 -0.796875 C 16.144531 -0.617188 15.550781 -0.476562 14.90625 -0.375 C 14.257812 -0.269531 13.632812 -0.195312 13.03125 -0.15625 C 12.425781 -0.113281 11.945312 -0.09375 11.59375 -0.09375 C 9.96875 -0.09375 8.488281 -0.390625 7.15625 -0.984375 C 5.820312 -1.578125 4.671875 -2.398438 3.703125 -3.453125 C 2.734375 -4.503906 1.988281 -5.722656 1.46875 -7.109375 C 0.957031 -8.492188 0.703125 -9.976562 0.703125 -11.5625 C 0.703125 -13.082031 0.953125 -14.523438 1.453125 -15.890625 C 1.960938 -17.265625 2.6875 -18.484375 3.625 -19.546875 C 4.5625 -20.617188 5.679688 -21.460938 6.984375 -22.078125 C 8.285156 -22.691406 9.726562 -23 11.3125 -23 C 11.582031 -23 11.847656 -23 12.109375 -23 C 12.378906 -23 12.648438 -22.988281 12.921875 -22.96875 C 13.328125 -22.945312 13.847656 -22.878906 14.484375 -22.765625 C 15.128906 -22.660156 15.753906 -22.507812 16.359375 -22.3125 C 16.960938 -22.113281 17.390625 -21.863281 17.640625 -21.5625 C 17.992188 -21.1875 18.191406 -20.664062 18.234375 -20 C 18.285156 -19.332031 18.3125 -18.757812 18.3125 -18.28125 C 18.3125 -18 18.265625 -17.773438 18.171875 -17.609375 C 18.085938 -17.441406 17.890625 -17.359375 17.578125 -17.359375 C 16.734375 -17.359375 15.90625 -17.476562 15.09375 -17.71875 C 14.28125 -17.957031 13.441406 -18.078125 12.578125 -18.078125 C 11.367188 -18.078125 10.378906 -17.769531 9.609375 -17.15625 C 8.835938 -16.550781 8.257812 -15.765625 7.875 -14.796875 C 7.5 -13.835938 7.3125 -12.8125 7.3125 -11.71875 C 7.3125 -10.582031 7.503906 -9.492188 7.890625 -8.453125 C 8.285156 -7.421875 8.890625 -6.578125 9.703125 -5.921875 C 10.515625 -5.265625 11.566406 -4.9375 12.859375 -4.9375 Z M 12.859375 -4.9375 "/></g></g></g><g fill="#413757" fill-opacity="1"><g transform="translate(90.645069, 360.601622)"><g><path d="M 11.65625 -23.03125 C 13.300781 -23.03125 14.835938 -22.75 16.265625 -22.1875 C 17.691406 -21.625 18.929688 -20.832031 19.984375 -19.8125 C 21.035156 -18.789062 21.863281 -17.578125 22.46875 -16.171875 C 23.070312 -14.765625 23.375 -13.226562 23.375 -11.5625 C 23.375 -10.039062 23.085938 -8.585938 22.515625 -7.203125 C 21.941406 -5.816406 21.148438 -4.585938 20.140625 -3.515625 C 19.128906 -2.441406 17.953125 -1.597656 16.609375 -0.984375 C 15.265625 -0.367188 13.8125 -0.0625 12.25 -0.0625 C 10.601562 -0.0625 9.078125 -0.347656 7.671875 -0.921875 C 6.273438 -1.492188 5.050781 -2.300781 4 -3.34375 C 2.957031 -4.382812 2.140625 -5.601562 1.546875 -7 C 0.960938 -8.394531 0.671875 -9.914062 0.671875 -11.5625 C 0.671875 -13.101562 0.941406 -14.5625 1.484375 -15.9375 C 2.035156 -17.320312 2.804688 -18.539062 3.796875 -19.59375 C 4.796875 -20.65625 5.957031 -21.492188 7.28125 -22.109375 C 8.613281 -22.722656 10.070312 -23.03125 11.65625 -23.03125 Z M 12.28125 -5.125 C 13.300781 -5.125 14.132812 -5.421875 14.78125 -6.015625 C 15.4375 -6.609375 15.925781 -7.347656 16.25 -8.234375 C 16.582031 -9.117188 16.75 -10.003906 16.75 -10.890625 C 16.75 -11.710938 16.691406 -12.535156 16.578125 -13.359375 C 16.460938 -14.179688 16.238281 -14.941406 15.90625 -15.640625 C 15.582031 -16.335938 15.101562 -16.894531 14.46875 -17.3125 C 13.84375 -17.738281 13.019531 -17.953125 12 -17.953125 C 11.007812 -17.953125 10.203125 -17.738281 9.578125 -17.3125 C 8.953125 -16.894531 8.472656 -16.335938 8.140625 -15.640625 C 7.804688 -14.941406 7.570312 -14.175781 7.4375 -13.34375 C 7.3125 -12.507812 7.25 -11.691406 7.25 -10.890625 C 7.25 -9.835938 7.425781 -8.875 7.78125 -8 C 8.144531 -7.125 8.703125 -6.425781 9.453125 -5.90625 C 10.203125 -5.382812 11.144531 -5.125 12.28125 -5.125 Z M 12.28125 -5.125 "/></g></g></g><g fill="#413757" fill-opacity="1"><g transform="translate(118.353323, 360.601622)"><g><path d="M 20.9375 -12.546875 L 20.9375 -10.109375 C 20.9375 -9.742188 20.929688 -9.242188 20.921875 -8.609375 C 20.910156 -7.984375 20.878906 -7.296875 20.828125 -6.546875 C 20.773438 -5.796875 20.6875 -5.0625 20.5625 -4.34375 C 20.445312 -3.625 20.296875 -2.988281 20.109375 -2.4375 C 19.921875 -1.882812 19.664062 -1.492188 19.34375 -1.265625 C 18.925781 -0.953125 18.476562 -0.75 18 -0.65625 C 17.53125 -0.570312 17.03125 -0.53125 16.5 -0.53125 C 16.289062 -0.53125 16.078125 -0.546875 15.859375 -0.578125 C 15.648438 -0.617188 15.441406 -0.679688 15.234375 -0.765625 C 14.941406 -0.910156 14.601562 -1.25 14.21875 -1.78125 C 13.84375 -2.320312 13.445312 -2.972656 13.03125 -3.734375 C 12.625 -4.492188 12.210938 -5.28125 11.796875 -6.09375 C 11.390625 -6.90625 11 -7.664062 10.625 -8.375 C 10.257812 -9.082031 9.921875 -9.65625 9.609375 -10.09375 C 9.304688 -10.539062 9.050781 -10.765625 8.84375 -10.765625 C 8.6875 -10.765625 8.570312 -10.644531 8.5 -10.40625 C 8.425781 -10.164062 8.375 -9.878906 8.34375 -9.546875 C 8.3125 -9.222656 8.289062 -8.910156 8.28125 -8.609375 C 8.269531 -8.316406 8.265625 -8.117188 8.265625 -8.015625 C 8.265625 -7.171875 8.285156 -6.332031 8.328125 -5.5 C 8.367188 -4.664062 8.390625 -3.828125 8.390625 -2.984375 C 8.390625 -2.203125 8.210938 -1.609375 7.859375 -1.203125 C 7.515625 -0.804688 6.941406 -0.609375 6.140625 -0.609375 C 5.785156 -0.609375 5.335938 -0.648438 4.796875 -0.734375 C 4.253906 -0.816406 3.847656 -0.984375 3.578125 -1.234375 C 3.285156 -1.523438 3.039062 -2.046875 2.84375 -2.796875 C 2.65625 -3.546875 2.507812 -4.410156 2.40625 -5.390625 C 2.300781 -6.378906 2.226562 -7.378906 2.1875 -8.390625 C 2.144531 -9.398438 2.117188 -10.328125 2.109375 -11.171875 C 2.097656 -12.023438 2.09375 -12.660156 2.09375 -13.078125 C 2.09375 -13.503906 2.101562 -14.054688 2.125 -14.734375 C 2.144531 -15.421875 2.191406 -16.164062 2.265625 -16.96875 C 2.335938 -17.769531 2.457031 -18.546875 2.625 -19.296875 C 2.789062 -20.046875 3.019531 -20.691406 3.3125 -21.234375 C 3.613281 -21.773438 4 -22.128906 4.46875 -22.296875 C 4.820312 -22.421875 5.148438 -22.492188 5.453125 -22.515625 C 5.765625 -22.535156 6.085938 -22.546875 6.421875 -22.546875 C 7.054688 -22.546875 7.648438 -22.304688 8.203125 -21.828125 C 8.753906 -21.359375 9.257812 -20.753906 9.71875 -20.015625 C 10.1875 -19.273438 10.617188 -18.488281 11.015625 -17.65625 C 11.421875 -16.820312 11.789062 -16.035156 12.125 -15.296875 C 12.46875 -14.554688 12.789062 -13.945312 13.09375 -13.46875 C 13.40625 -13 13.695312 -12.765625 13.96875 -12.765625 C 14.195312 -12.765625 14.363281 -12.953125 14.46875 -13.328125 C 14.570312 -13.710938 14.648438 -14.164062 14.703125 -14.6875 C 14.765625 -15.21875 14.796875 -15.710938 14.796875 -16.171875 C 14.796875 -16.640625 14.796875 -16.960938 14.796875 -17.140625 C 14.796875 -17.703125 14.78125 -18.265625 14.75 -18.828125 C 14.71875 -19.390625 14.703125 -19.953125 14.703125 -20.515625 C 14.703125 -21.148438 14.800781 -21.609375 15 -21.890625 C 15.195312 -22.179688 15.484375 -22.359375 15.859375 -22.421875 C 16.242188 -22.484375 16.703125 -22.515625 17.234375 -22.515625 C 17.546875 -22.515625 17.925781 -22.46875 18.375 -22.375 C 18.832031 -22.28125 19.171875 -22.117188 19.390625 -21.890625 C 19.742188 -21.546875 20.023438 -20.96875 20.234375 -20.15625 C 20.453125 -19.34375 20.609375 -18.445312 20.703125 -17.46875 C 20.796875 -16.488281 20.859375 -15.546875 20.890625 -14.640625 C 20.921875 -13.742188 20.9375 -13.046875 20.9375 -12.546875 Z M 20.9375 -12.546875 "/></g></g></g><g fill="#413757" fill-opacity="1"><g transform="translate(145.111675, 360.601622)"><g><path d="M 10.265625 -18.28125 C 9.691406 -18.28125 9.160156 -18.15625 8.671875 -17.90625 C 8.191406 -17.664062 7.953125 -17.207031 7.953125 -16.53125 C 7.953125 -16 8.191406 -15.5625 8.671875 -15.21875 C 9.160156 -14.875 9.789062 -14.5625 10.5625 -14.28125 C 11.332031 -14.007812 12.15625 -13.710938 13.03125 -13.390625 C 13.90625 -13.078125 14.726562 -12.675781 15.5 -12.1875 C 16.269531 -11.707031 16.894531 -11.085938 17.375 -10.328125 C 17.863281 -9.566406 18.109375 -8.601562 18.109375 -7.4375 C 18.109375 -5.9375 17.710938 -4.628906 16.921875 -3.515625 C 16.128906 -2.398438 15.101562 -1.539062 13.84375 -0.9375 C 12.59375 -0.332031 11.25 -0.03125 9.8125 -0.03125 C 8.757812 -0.03125 7.769531 -0.0859375 6.84375 -0.203125 C 5.914062 -0.316406 5.097656 -0.5625 4.390625 -0.9375 C 3.679688 -1.320312 3.125 -1.890625 2.71875 -2.640625 C 2.320312 -3.390625 2.125 -4.398438 2.125 -5.671875 C 2.125 -5.816406 2.144531 -5.945312 2.1875 -6.0625 C 2.226562 -6.175781 2.332031 -6.234375 2.5 -6.234375 C 2.988281 -6.234375 3.472656 -6.15625 3.953125 -6 C 4.441406 -5.84375 4.921875 -5.691406 5.390625 -5.546875 C 5.953125 -5.378906 6.53125 -5.21875 7.125 -5.0625 C 7.71875 -4.914062 8.3125 -4.84375 8.90625 -4.84375 C 9.300781 -4.84375 9.695312 -4.894531 10.09375 -5 C 10.5 -5.101562 10.835938 -5.289062 11.109375 -5.5625 C 11.390625 -5.84375 11.53125 -6.21875 11.53125 -6.6875 C 11.53125 -7.363281 11.285156 -7.867188 10.796875 -8.203125 C 10.398438 -8.492188 9.96875 -8.695312 9.5 -8.8125 C 9.039062 -8.9375 8.578125 -9.0625 8.109375 -9.1875 C 7.328125 -9.414062 6.546875 -9.734375 5.765625 -10.140625 C 4.984375 -10.554688 4.265625 -11.054688 3.609375 -11.640625 C 2.953125 -12.222656 2.421875 -12.890625 2.015625 -13.640625 C 1.617188 -14.390625 1.421875 -15.207031 1.421875 -16.09375 C 1.421875 -17.25 1.664062 -18.257812 2.15625 -19.125 C 2.65625 -19.988281 3.320312 -20.710938 4.15625 -21.296875 C 5 -21.878906 5.925781 -22.3125 6.9375 -22.59375 C 7.945312 -22.882812 8.972656 -23.03125 10.015625 -23.03125 C 10.984375 -23.03125 11.90625 -22.992188 12.78125 -22.921875 C 13.65625 -22.859375 14.4375 -22.679688 15.125 -22.390625 C 15.8125 -22.097656 16.351562 -21.609375 16.75 -20.921875 C 17.15625 -20.234375 17.359375 -19.273438 17.359375 -18.046875 C 17.359375 -17.523438 17.082031 -17.265625 16.53125 -17.265625 C 16.0625 -17.265625 15.585938 -17.320312 15.109375 -17.4375 C 14.640625 -17.550781 14.1875 -17.660156 13.75 -17.765625 C 13.175781 -17.890625 12.597656 -18.003906 12.015625 -18.109375 C 11.441406 -18.222656 10.859375 -18.28125 10.265625 -18.28125 Z M 10.265625 -18.28125 "/></g></g></g><g fill="#413757" fill-opacity="1"><g transform="translate(168.387022, 360.601622)"><g><path d="M 6.171875 -22.578125 C 6.410156 -22.578125 6.648438 -22.554688 6.890625 -22.515625 C 7.128906 -22.472656 7.34375 -22.398438 7.53125 -22.296875 C 7.75 -22.171875 7.90625 -22 8 -21.78125 C 8.09375 -21.570312 8.160156 -21.351562 8.203125 -21.125 C 8.367188 -20.28125 8.46875 -19.414062 8.5 -18.53125 C 8.53125 -17.644531 8.546875 -16.769531 8.546875 -15.90625 C 8.546875 -14.71875 8.507812 -13.53125 8.4375 -12.34375 C 8.363281 -11.164062 8.328125 -9.988281 8.328125 -8.8125 C 8.328125 -8.132812 8.390625 -7.5 8.515625 -6.90625 C 8.640625 -6.3125 8.898438 -5.832031 9.296875 -5.46875 C 9.703125 -5.113281 10.304688 -4.9375 11.109375 -4.9375 C 12.296875 -4.9375 13.109375 -5.234375 13.546875 -5.828125 C 13.992188 -6.421875 14.21875 -7.265625 14.21875 -8.359375 C 14.21875 -10.085938 14.203125 -11.804688 14.171875 -13.515625 C 14.140625 -15.234375 14.125 -16.957031 14.125 -18.6875 C 14.125 -19.238281 14.132812 -19.804688 14.15625 -20.390625 C 14.175781 -20.984375 14.320312 -21.484375 14.59375 -21.890625 C 14.875 -22.304688 15.394531 -22.515625 16.15625 -22.515625 C 16.695312 -22.515625 17.238281 -22.484375 17.78125 -22.421875 C 18.320312 -22.359375 18.8125 -22.148438 19.25 -21.796875 C 19.59375 -21.515625 19.859375 -21.023438 20.046875 -20.328125 C 20.234375 -19.628906 20.367188 -18.847656 20.453125 -17.984375 C 20.546875 -17.117188 20.601562 -16.300781 20.625 -15.53125 C 20.644531 -14.757812 20.65625 -14.164062 20.65625 -13.75 C 20.65625 -12.925781 20.648438 -12.101562 20.640625 -11.28125 C 20.628906 -10.457031 20.625 -9.632812 20.625 -8.8125 C 20.625 -8.195312 20.5625 -7.582031 20.4375 -6.96875 C 20.320312 -6.351562 20.128906 -5.757812 19.859375 -5.1875 C 19.078125 -3.519531 17.890625 -2.242188 16.296875 -1.359375 C 14.703125 -0.472656 13 -0.03125 11.1875 -0.03125 C 9.46875 -0.03125 7.898438 -0.390625 6.484375 -1.109375 C 5.078125 -1.828125 3.953125 -2.835938 3.109375 -4.140625 C 2.265625 -5.453125 1.832031 -6.992188 1.8125 -8.765625 C 1.8125 -9.359375 1.804688 -9.941406 1.796875 -10.515625 C 1.785156 -11.085938 1.78125 -11.664062 1.78125 -12.25 C 1.78125 -12.632812 1.785156 -13.15625 1.796875 -13.8125 C 1.804688 -14.46875 1.832031 -15.175781 1.875 -15.9375 C 1.914062 -16.695312 1.972656 -17.445312 2.046875 -18.1875 C 2.117188 -18.9375 2.222656 -19.609375 2.359375 -20.203125 C 2.492188 -20.796875 2.664062 -21.226562 2.875 -21.5 C 3.238281 -21.96875 3.75 -22.265625 4.40625 -22.390625 C 5.0625 -22.515625 5.648438 -22.578125 6.171875 -22.578125 Z M 6.171875 -22.578125 "/></g></g></g><g fill="#413757" fill-opacity="1"><g transform="translate(194.512098, 360.601622)"><g><path d="M 8.734375 -11.78125 C 8.734375 -11.382812 8.738281 -10.894531 8.75 -10.3125 C 8.757812 -9.726562 8.804688 -9.132812 8.890625 -8.53125 C 8.984375 -7.9375 9.140625 -7.394531 9.359375 -6.90625 C 9.578125 -6.414062 9.898438 -6.054688 10.328125 -5.828125 C 10.617188 -5.679688 10.929688 -5.582031 11.265625 -5.53125 C 11.609375 -5.476562 11.945312 -5.453125 12.28125 -5.453125 C 13.019531 -5.453125 13.742188 -5.460938 14.453125 -5.484375 C 15.160156 -5.503906 15.875 -5.515625 16.59375 -5.515625 C 17.582031 -5.515625 18.078125 -5.015625 18.078125 -4.015625 C 18.078125 -3.617188 18.035156 -3.207031 17.953125 -2.78125 C 17.867188 -2.363281 17.679688 -2.003906 17.390625 -1.703125 C 16.898438 -1.179688 16.285156 -0.828125 15.546875 -0.640625 C 14.804688 -0.460938 14.097656 -0.375 13.421875 -0.375 C 12.710938 -0.375 11.867188 -0.367188 10.890625 -0.359375 C 9.921875 -0.347656 8.945312 -0.394531 7.96875 -0.5 C 6.988281 -0.613281 6.078125 -0.832031 5.234375 -1.15625 C 4.398438 -1.476562 3.753906 -1.976562 3.296875 -2.65625 C 2.953125 -3.144531 2.707031 -3.660156 2.5625 -4.203125 C 2.414062 -4.753906 2.320312 -5.316406 2.28125 -5.890625 C 2.21875 -6.734375 2.175781 -7.578125 2.15625 -8.421875 C 2.132812 -9.265625 2.125 -10.109375 2.125 -10.953125 C 2.125 -11.378906 2.128906 -11.945312 2.140625 -12.65625 C 2.148438 -13.363281 2.171875 -14.128906 2.203125 -14.953125 C 2.234375 -15.773438 2.28125 -16.59375 2.34375 -17.40625 C 2.40625 -18.21875 2.5 -18.953125 2.625 -19.609375 C 2.75 -20.265625 2.910156 -20.757812 3.109375 -21.09375 C 3.484375 -21.769531 3.96875 -22.191406 4.5625 -22.359375 C 5.15625 -22.523438 5.8125 -22.609375 6.53125 -22.609375 C 7.113281 -22.609375 7.566406 -22.390625 7.890625 -21.953125 C 8.222656 -21.523438 8.460938 -20.984375 8.609375 -20.328125 C 8.765625 -19.671875 8.863281 -19.023438 8.90625 -18.390625 C 8.945312 -17.765625 8.96875 -17.238281 8.96875 -16.8125 C 8.96875 -16.25 8.957031 -15.679688 8.9375 -15.109375 C 8.914062 -14.535156 8.882812 -13.960938 8.84375 -13.390625 C 8.820312 -13.117188 8.796875 -12.847656 8.765625 -12.578125 C 8.742188 -12.316406 8.734375 -12.050781 8.734375 -11.78125 Z M 8.734375 -11.78125 "/></g></g></g><g fill="#413757" fill-opacity="1"><g transform="translate(217.94576, 360.601622)"><g><path d="M 19.828125 -18.8125 C 19.828125 -18.28125 19.65625 -17.925781 19.3125 -17.75 C 18.976562 -17.570312 18.578125 -17.484375 18.109375 -17.484375 C 17.878906 -17.484375 17.648438 -17.492188 17.421875 -17.515625 C 17.191406 -17.535156 16.957031 -17.546875 16.71875 -17.546875 C 15.957031 -17.546875 15.382812 -17.375 15 -17.03125 C 14.625 -16.695312 14.375 -16.25 14.25 -15.6875 C 14.125 -15.132812 14.0625 -14.539062 14.0625 -13.90625 C 14.0625 -13.25 14.070312 -12.601562 14.09375 -11.96875 C 14.113281 -11.332031 14.125 -10.691406 14.125 -10.046875 C 14.125 -9.722656 14.117188 -9.234375 14.109375 -8.578125 C 14.097656 -7.921875 14.070312 -7.195312 14.03125 -6.40625 C 13.988281 -5.613281 13.925781 -4.832031 13.84375 -4.0625 C 13.757812 -3.289062 13.648438 -2.613281 13.515625 -2.03125 C 13.390625 -1.457031 13.222656 -1.078125 13.015625 -0.890625 C 12.742188 -0.609375 12.398438 -0.453125 11.984375 -0.421875 C 11.578125 -0.390625 11.191406 -0.375 10.828125 -0.375 C 10.515625 -0.375 10.175781 -0.382812 9.8125 -0.40625 C 9.457031 -0.425781 9.144531 -0.515625 8.875 -0.671875 C 8.46875 -0.898438 8.160156 -1.359375 7.953125 -2.046875 C 7.742188 -2.734375 7.59375 -3.5 7.5 -4.34375 C 7.414062 -5.1875 7.363281 -6 7.34375 -6.78125 C 7.320312 -7.5625 7.3125 -8.160156 7.3125 -8.578125 C 7.3125 -9.378906 7.320312 -10.179688 7.34375 -10.984375 C 7.363281 -11.785156 7.375 -12.585938 7.375 -13.390625 C 7.375 -13.773438 7.363281 -14.160156 7.34375 -14.546875 C 7.320312 -14.941406 7.28125 -15.328125 7.21875 -15.703125 C 7.09375 -16.378906 6.820312 -16.832031 6.40625 -17.0625 C 6 -17.300781 5.523438 -17.425781 4.984375 -17.4375 C 4.453125 -17.445312 3.929688 -17.445312 3.421875 -17.4375 C 2.910156 -17.425781 2.484375 -17.515625 2.140625 -17.703125 C 1.804688 -17.890625 1.640625 -18.28125 1.640625 -18.875 C 1.640625 -19.101562 1.65625 -19.390625 1.6875 -19.734375 C 1.71875 -20.085938 1.78125 -20.429688 1.875 -20.765625 C 1.976562 -21.109375 2.101562 -21.351562 2.25 -21.5 C 2.539062 -21.800781 3.003906 -22.03125 3.640625 -22.1875 C 4.273438 -22.34375 4.976562 -22.460938 5.75 -22.546875 C 6.519531 -22.628906 7.257812 -22.679688 7.96875 -22.703125 C 8.675781 -22.722656 9.226562 -22.734375 9.625 -22.734375 C 10.007812 -22.734375 10.570312 -22.738281 11.3125 -22.75 C 12.050781 -22.757812 12.859375 -22.75 13.734375 -22.71875 C 14.609375 -22.6875 15.460938 -22.609375 16.296875 -22.484375 C 17.128906 -22.359375 17.851562 -22.15625 18.46875 -21.875 C 19.082031 -21.601562 19.472656 -21.238281 19.640625 -20.78125 C 19.679688 -20.695312 19.710938 -20.515625 19.734375 -20.234375 C 19.753906 -19.960938 19.773438 -19.6875 19.796875 -19.40625 C 19.816406 -19.132812 19.828125 -18.9375 19.828125 -18.8125 Z M 19.828125 -18.8125 "/></g></g></g><g fill="#413757" fill-opacity="1"><g transform="translate(243.120942, 360.601622)"><g><path d="M 9.6875 -14.953125 L 9.6875 -9.4375 C 9.6875 -9.039062 9.675781 -8.492188 9.65625 -7.796875 C 9.632812 -7.097656 9.597656 -6.363281 9.546875 -5.59375 C 9.492188 -4.820312 9.421875 -4.101562 9.328125 -3.4375 C 9.234375 -2.769531 9.101562 -2.269531 8.9375 -1.9375 C 8.675781 -1.40625 8.320312 -1.007812 7.875 -0.75 C 7.4375 -0.5 6.929688 -0.375 6.359375 -0.375 C 5.984375 -0.375 5.597656 -0.394531 5.203125 -0.4375 C 4.816406 -0.476562 4.457031 -0.597656 4.125 -0.796875 C 3.820312 -0.960938 3.578125 -1.3125 3.390625 -1.84375 C 3.203125 -2.382812 3.046875 -3.019531 2.921875 -3.75 C 2.804688 -4.476562 2.722656 -5.222656 2.671875 -5.984375 C 2.617188 -6.742188 2.585938 -7.441406 2.578125 -8.078125 C 2.566406 -8.710938 2.5625 -9.195312 2.5625 -9.53125 C 2.5625 -10.207031 2.550781 -10.882812 2.53125 -11.5625 C 2.507812 -12.238281 2.5 -12.914062 2.5 -13.59375 C 2.5 -13.945312 2.503906 -14.445312 2.515625 -15.09375 C 2.523438 -15.738281 2.5625 -16.4375 2.625 -17.1875 C 2.6875 -17.9375 2.78125 -18.660156 2.90625 -19.359375 C 3.039062 -20.066406 3.222656 -20.691406 3.453125 -21.234375 C 3.679688 -21.773438 3.96875 -22.140625 4.3125 -22.328125 C 4.5625 -22.472656 4.820312 -22.570312 5.09375 -22.625 C 5.375 -22.675781 5.660156 -22.703125 5.953125 -22.703125 C 6.378906 -22.703125 6.753906 -22.691406 7.078125 -22.671875 C 7.398438 -22.648438 7.742188 -22.523438 8.109375 -22.296875 C 8.460938 -22.085938 8.742188 -21.664062 8.953125 -21.03125 C 9.171875 -20.394531 9.332031 -19.679688 9.4375 -18.890625 C 9.539062 -18.097656 9.609375 -17.335938 9.640625 -16.609375 C 9.671875 -15.878906 9.6875 -15.328125 9.6875 -14.953125 Z M 9.6875 -14.953125 "/></g></g></g><g fill="#413757" fill-opacity="1"><g transform="translate(259.113627, 360.601622)"><g><path d="M 20.9375 -12.546875 L 20.9375 -10.109375 C 20.9375 -9.742188 20.929688 -9.242188 20.921875 -8.609375 C 20.910156 -7.984375 20.878906 -7.296875 20.828125 -6.546875 C 20.773438 -5.796875 20.6875 -5.0625 20.5625 -4.34375 C 20.445312 -3.625 20.296875 -2.988281 20.109375 -2.4375 C 19.921875 -1.882812 19.664062 -1.492188 19.34375 -1.265625 C 18.925781 -0.953125 18.476562 -0.75 18 -0.65625 C 17.53125 -0.570312 17.03125 -0.53125 16.5 -0.53125 C 16.289062 -0.53125 16.078125 -0.546875 15.859375 -0.578125 C 15.648438 -0.617188 15.441406 -0.679688 15.234375 -0.765625 C 14.941406 -0.910156 14.601562 -1.25 14.21875 -1.78125 C 13.84375 -2.320312 13.445312 -2.972656 13.03125 -3.734375 C 12.625 -4.492188 12.210938 -5.28125 11.796875 -6.09375 C 11.390625 -6.90625 11 -7.664062 10.625 -8.375 C 10.257812 -9.082031 9.921875 -9.65625 9.609375 -10.09375 C 9.304688 -10.539062 9.050781 -10.765625 8.84375 -10.765625 C 8.6875 -10.765625 8.570312 -10.644531 8.5 -10.40625 C 8.425781 -10.164062 8.375 -9.878906 8.34375 -9.546875 C 8.3125 -9.222656 8.289062 -8.910156 8.28125 -8.609375 C 8.269531 -8.316406 8.265625 -8.117188 8.265625 -8.015625 C 8.265625 -7.171875 8.285156 -6.332031 8.328125 -5.5 C 8.367188 -4.664062 8.390625 -3.828125 8.390625 -2.984375 C 8.390625 -2.203125 8.210938 -1.609375 7.859375 -1.203125 C 7.515625 -0.804688 6.941406 -0.609375 6.140625 -0.609375 C 5.785156 -0.609375 5.335938 -0.648438 4.796875 -0.734375 C 4.253906 -0.816406 3.847656 -0.984375 3.578125 -1.234375 C 3.285156 -1.523438 3.039062 -2.046875 2.84375 -2.796875 C 2.65625 -3.546875 2.507812 -4.410156 2.40625 -5.390625 C 2.300781 -6.378906 2.226562 -7.378906 2.1875 -8.390625 C 2.144531 -9.398438 2.117188 -10.328125 2.109375 -11.171875 C 2.097656 -12.023438 2.09375 -12.660156 2.09375 -13.078125 C 2.09375 -13.503906 2.101562 -14.054688 2.125 -14.734375 C 2.144531 -15.421875 2.191406 -16.164062 2.265625 -16.96875 C 2.335938 -17.769531 2.457031 -18.546875 2.625 -19.296875 C 2.789062 -20.046875 3.019531 -20.691406 3.3125 -21.234375 C 3.613281 -21.773438 4 -22.128906 4.46875 -22.296875 C 4.820312 -22.421875 5.148438 -22.492188 5.453125 -22.515625 C 5.765625 -22.535156 6.085938 -22.546875 6.421875 -22.546875 C 7.054688 -22.546875 7.648438 -22.304688 8.203125 -21.828125 C 8.753906 -21.359375 9.257812 -20.753906 9.71875 -20.015625 C 10.1875 -19.273438 10.617188 -18.488281 11.015625 -17.65625 C 11.421875 -16.820312 11.789062 -16.035156 12.125 -15.296875 C 12.46875 -14.554688 12.789062 -13.945312 13.09375 -13.46875 C 13.40625 -13 13.695312 -12.765625 13.96875 -12.765625 C 14.195312 -12.765625 14.363281 -12.953125 14.46875 -13.328125 C 14.570312 -13.710938 14.648438 -14.164062 14.703125 -14.6875 C 14.765625 -15.21875 14.796875 -15.710938 14.796875 -16.171875 C 14.796875 -16.640625 14.796875 -16.960938 14.796875 -17.140625 C 14.796875 -17.703125 14.78125 -18.265625 14.75 -18.828125 C 14.71875 -19.390625 14.703125 -19.953125 14.703125 -20.515625 C 14.703125 -21.148438 14.800781 -21.609375 15 -21.890625 C 15.195312 -22.179688 15.484375 -22.359375 15.859375 -22.421875 C 16.242188 -22.484375 16.703125 -22.515625 17.234375 -22.515625 C 17.546875 -22.515625 17.925781 -22.46875 18.375 -22.375 C 18.832031 -22.28125 19.171875 -22.117188 19.390625 -21.890625 C 19.742188 -21.546875 20.023438 -20.96875 20.234375 -20.15625 C 20.453125 -19.34375 20.609375 -18.445312 20.703125 -17.46875 C 20.796875 -16.488281 20.859375 -15.546875 20.890625 -14.640625 C 20.921875 -13.742188 20.9375 -13.046875 20.9375 -12.546875 Z M 20.9375 -12.546875 "/></g></g></g><g fill="#413757" fill-opacity="1"><g transform="translate(285.871969, 360.601622)"><g><path d="M 21.09375 -8.8125 C 21.09375 -6.96875 20.96875 -5.472656 20.71875 -4.328125 C 20.476562 -3.191406 20.046875 -2.3125 19.421875 -1.6875 C 18.804688 -1.070312 17.921875 -0.648438 16.765625 -0.421875 C 15.617188 -0.203125 14.125 -0.09375 12.28125 -0.09375 C 10.75 -0.09375 9.285156 -0.382812 7.890625 -0.96875 C 6.492188 -1.550781 5.25 -2.351562 4.15625 -3.375 C 3.070312 -4.394531 2.21875 -5.585938 1.59375 -6.953125 C 0.976562 -8.316406 0.671875 -9.78125 0.671875 -11.34375 C 0.671875 -13.007812 0.957031 -14.546875 1.53125 -15.953125 C 2.113281 -17.367188 2.921875 -18.601562 3.953125 -19.65625 C 4.992188 -20.71875 6.21875 -21.539062 7.625 -22.125 C 9.039062 -22.707031 10.582031 -23 12.25 -23 C 13.007812 -23 13.816406 -23 14.671875 -23 C 15.535156 -23 16.359375 -22.875 17.140625 -22.625 C 17.921875 -22.382812 18.539062 -21.90625 19 -21.1875 C 19.226562 -20.832031 19.378906 -20.394531 19.453125 -19.875 C 19.535156 -19.351562 19.578125 -18.882812 19.578125 -18.46875 C 19.578125 -18.101562 19.503906 -17.863281 19.359375 -17.75 C 19.222656 -17.632812 18.976562 -17.578125 18.625 -17.578125 C 17.78125 -17.578125 16.976562 -17.675781 16.21875 -17.875 C 15.457031 -18.070312 14.632812 -18.171875 13.75 -18.171875 C 11.488281 -18.171875 9.835938 -17.625 8.796875 -16.53125 C 7.765625 -15.4375 7.25 -13.769531 7.25 -11.53125 C 7.25 -9.539062 7.726562 -7.9375 8.6875 -6.71875 C 9.65625 -5.507812 11.179688 -4.90625 13.265625 -4.90625 C 13.878906 -4.90625 14.300781 -5.007812 14.53125 -5.21875 C 14.769531 -5.4375 14.898438 -5.726562 14.921875 -6.09375 C 14.941406 -6.46875 14.953125 -6.894531 14.953125 -7.375 C 14.953125 -8.09375 14.851562 -8.632812 14.65625 -9 C 14.46875 -9.375 13.972656 -9.5625 13.171875 -9.5625 C 13.066406 -9.5625 12.957031 -9.554688 12.84375 -9.546875 C 12.726562 -9.535156 12.609375 -9.53125 12.484375 -9.53125 C 11.804688 -9.53125 11.335938 -9.722656 11.078125 -10.109375 C 10.828125 -10.503906 10.703125 -11 10.703125 -11.59375 C 10.703125 -12.476562 10.890625 -13.132812 11.265625 -13.5625 C 11.648438 -14 12.296875 -14.21875 13.203125 -14.21875 C 13.566406 -14.21875 13.910156 -14.207031 14.234375 -14.1875 C 14.566406 -14.164062 14.898438 -14.15625 15.234375 -14.15625 C 15.765625 -14.15625 16.285156 -14.148438 16.796875 -14.140625 C 17.316406 -14.128906 17.832031 -14.101562 18.34375 -14.0625 C 19.101562 -14 19.679688 -13.804688 20.078125 -13.484375 C 20.484375 -13.171875 20.757812 -12.625 20.90625 -11.84375 C 21.007812 -11.351562 21.066406 -10.847656 21.078125 -10.328125 C 21.085938 -9.816406 21.09375 -9.3125 21.09375 -8.8125 Z M 21.09375 -8.8125 "/></g></g></g><g clip-path="url(#9c4afe20f5)"><path fill="#9b0000" d="M 214.796875 34.296875 C 194.074219 63.144531 191.414062 99.300781 207.675781 131.015625 C 223.78125 162.414062 255.425781 181.917969 290.265625 181.917969 C 291.867188 181.917969 293.496094 181.878906 295.105469 181.796875 L 298.9375 181.609375 L 298.9375 139.675781 C 298.9375 89.789062 266.894531 46.832031 219.207031 32.785156 L 216.464844 31.976562 Z M 187.375 28.203125 C 125.964844 28.203125 76.007812 78.207031 76.007812 139.675781 L 76.007812 245.9375 L 127.183594 245.9375 L 126.636719 241.425781 C 123.398438 214.609375 130.421875 187.914062 146.410156 166.261719 L 147.039062 165.414062 C 148.914062 162.929688 151.109375 160.277344 153.164062 158.015625 L 153.375 157.785156 C 153.753906 157.367188 154.394531 156.679688 154.742188 156.316406 L 154.882812 156.21875 L 155.257812 155.761719 C 155.769531 155.164062 158.761719 152.289062 159.863281 151.269531 L 159.957031 151.222656 L 160.421875 150.757812 C 165.792969 145.382812 177.40625 137.140625 190.210938 131.730469 L 192.671875 130.691406 L 192.671875 128.023438 C 192.671875 127.210938 192.472656 126.699219 192.082031 125.683594 C 187.300781 113.320312 180.707031 88.046875 190.089844 57.507812 L 190.179688 57.226562 C 192.703125 49.222656 196.089844 41.644531 200.246094 34.707031 L 203.550781 29.179688 L 197.136719 28.625 C 193.894531 28.34375 190.613281 28.203125 187.375 28.203125 Z M 183.664062 148.378906 C 180.316406 150.300781 175.097656 153.832031 169.917969 158.34375 L 166.511719 161.308594 L 169.847656 164.355469 C 191.695312 184.289062 204.226562 212.558594 204.226562 241.90625 L 204.226562 245.9375 L 246.085938 245.9375 L 246.085938 184.074219 L 243.835938 182.96875 C 239.539062 180.847656 235.269531 178.339844 231.480469 175.703125 L 231.277344 175.503906 L 230.96875 175.351562 L 230.179688 174.800781 L 230.125 174.800781 C 228.433594 173.597656 224.765625 170.820312 224.066406 170.191406 L 223.949219 170.074219 L 223.789062 169.941406 C 212.199219 160.574219 205.847656 151.128906 203.460938 147.574219 C 202.949219 146.816406 202.648438 146.371094 202.371094 146.027344 C 202.066406 145.523438 201.644531 144.867188 201.074219 143.972656 L 200.992188 143.84375 L 199.214844 140.945312 L 196.042969 142.257812 C 191.960938 143.945312 188.355469 145.691406 185.050781 147.582031 L 184.464844 147.582031 Z M 298.9375 258.351562 L 298.9375 193.644531 L 294.773438 193.78125 C 293.359375 193.828125 291.945312 193.851562 290.574219 193.851562 C 280.910156 193.851562 271.929688 192.675781 263.128906 190.265625 L 258.039062 188.863281 L 258.039062 257.890625 L 191.199219 257.890625 C 192.039062 249.664062 192.867188 240.382812 191.417969 229.566406 C 188.292969 207.398438 178.011719 187.902344 161.671875 173.164062 L 158.359375 170.167969 L 155.726562 173.773438 C 139.585938 195.878906 133.996094 223.851562 140.394531 250.515625 L 142.160156 257.890625 L 64.054688 257.890625 L 64.054688 139.675781 C 64.054688 106.207031 77.203125 74.910156 101.082031 51.542969 C 112.484375 40.386719 125.703125 31.621094 140.378906 25.503906 C 155.378906 19.238281 171.152344 16.0625 187.25 16.0625 C 201.117188 16.0625 214.917969 18.457031 228.277344 23.171875 C 252.441406 31.660156 273.078125 47.160156 287.960938 68.003906 C 302.957031 89.011719 310.886719 113.796875 310.886719 139.675781 L 310.886719 258.351562 L 298.9375 258.351562 " fill-opacity="1" fill-rule="nonzero"/></g><path fill="#9b0000" d="M 248.128906 122.171875 C 242.371094 122.171875 237.695312 117.492188 237.695312 111.738281 C 237.695312 105.980469 242.371094 101.300781 248.128906 101.300781 C 253.882812 101.300781 258.5625 105.980469 258.5625 111.738281 C 258.5625 117.492188 253.882812 122.171875 248.128906 122.171875 " fill-opacity="1" fill-rule="nonzero"/></svg>