<svg xmlns="http://www.w3.org/2000/svg" xmlns:xlink="http://www.w3.org/1999/xlink" width="500" zoomAndPan="magnify" viewBox="0 0 375 374.999991" height="500" preserveAspectRatio="xMidYMid meet" version="1.0"><defs><clipPath id="ae9a5bb2b5"><path d="M 17 90.128906 L 343 90.128906 L 343 264.128906 L 17 264.128906 Z M 17 90.128906 " clip-rule="nonzero"/></clipPath></defs><rect x="-37.5" width="450" fill="#ffffff" y="-37.499999" height="449.999989" fill-opacity="1"/><rect x="-37.5" width="450" fill="#ffffff" y="-37.499999" height="449.999989" fill-opacity="1"/><g clip-path="url(#ae9a5bb2b5)"><path fill="#000000" d="M 157.898438 93.511719 C 170.816406 95.074219 180.917969 100.3125 188.195312 109.21875 L 188.191406 109.21875 C 183.058594 114.40625 178.671875 121.039062 175.03125 129.117188 L 175.027344 129.132812 C 168.914062 143.035156 167.167969 159.390625 169.789062 178.203125 C 166.894531 178.179688 164.183594 178.164062 161.65625 178.160156 L 161.652344 178.160156 C 163.097656 173.125 163.945312 167.402344 164.203125 160.988281 C 164.203125 160.949219 164.203125 160.914062 164.203125 160.875 C 163.742188 142.597656 157.460938 131.402344 145.351562 127.300781 C 142.769531 126.386719 140.226562 125.929688 137.71875 125.929688 C 126.851562 125.929688 116.695312 134.5 107.25 151.632812 C 107.230469 151.671875 107.210938 151.707031 107.191406 151.746094 C 105.03125 156.445312 103.101562 161.179688 101.398438 165.953125 C 100.097656 155.316406 102.785156 143.515625 109.460938 130.550781 L 109.457031 130.550781 C 124.5625 106.710938 140.707031 94.363281 157.894531 93.511719 Z M 190.292969 111.996094 C 197.449219 122.269531 201.40625 136.714844 202.160156 155.328125 L 202.15625 155.328125 C 201.804688 163.425781 200.871094 171.195312 199.351562 178.636719 C 189.515625 178.445312 180.8125 178.3125 173.246094 178.234375 L 173.242188 178.234375 C 170.609375 159.855469 172.246094 143.949219 178.148438 130.515625 C 181.523438 123.019531 185.570312 116.847656 190.289062 111.996094 Z M 218.289062 98.851562 C 232.011719 100.597656 239.394531 107.644531 240.433594 119.992188 L 240.429688 119.992188 C 239.761719 133.449219 233.0625 147.082031 220.328125 160.890625 L 220.261719 160.964844 C 215.035156 167.332031 209.34375 173.25 203.179688 178.714844 C 203.0625 178.710938 202.949219 178.710938 202.832031 178.707031 L 202.828125 178.707031 C 204.3125 171.246094 205.226562 163.464844 205.574219 155.363281 C 205.574219 155.316406 205.574219 155.269531 205.574219 155.222656 C 204.785156 135.59375 200.546875 120.367188 192.863281 109.542969 L 192.859375 109.542969 C 199.960938 103.261719 208.433594 99.699219 218.285156 98.851562 Z M 173.773438 181.628906 C 181.011719 181.707031 189.296875 181.835938 198.621094 182.019531 L 198.617188 182.019531 C 198.5625 182.265625 198.503906 182.507812 198.445312 182.753906 L 198.441406 182.753906 C 196.539062 184.3125 194.59375 185.828125 192.609375 187.308594 L 192.605469 187.308594 L 175.261719 189.234375 C 174.6875 186.65625 174.191406 184.121094 173.769531 181.628906 Z M 137.863281 129.382812 C 139.960938 129.382812 142.078125 129.761719 144.214844 130.515625 L 144.234375 130.523438 C 154.847656 134.109375 160.363281 144.253906 160.789062 160.949219 L 160.785156 160.949219 C 160.519531 167.460938 159.617188 173.199219 158.082031 178.160156 L 158.078125 178.160156 C 146.167969 178.179688 138.929688 178.4375 136.367188 178.933594 C 126.261719 179.84375 119.042969 183.371094 114.710938 189.519531 C 112.25 188.042969 110.058594 186.199219 108.140625 183.988281 L 108.136719 183.988281 C 105.734375 180.367188 103.945312 176.566406 102.769531 172.589844 C 104.835938 166.070312 107.332031 159.625 110.261719 153.25 L 110.257812 153.25 C 119.035156 137.339844 128.238281 129.382812 137.863281 129.382812 Z M 160.558594 181.539062 C 163.535156 181.542969 166.785156 181.5625 170.304688 181.59375 L 170.300781 181.59375 C 170.734375 184.222656 171.25 186.894531 171.84375 189.617188 L 155.347656 191.449219 C 157.457031 188.578125 159.191406 185.277344 160.554688 181.539062 Z M 156.890625 181.542969 C 155.253906 185.640625 153.113281 189.125 150.46875 191.992188 L 150.464844 191.992188 L 132.550781 193.984375 C 126.945312 193.949219 122.023438 192.988281 117.777344 191.109375 C 121.566406 186.035156 127.898438 183.105469 136.765625 182.324219 C 136.828125 182.316406 136.894531 182.308594 136.960938 182.292969 C 139.242188 181.824219 145.886719 181.574219 156.886719 181.542969 Z M 186.890625 191.375 C 183.785156 193.488281 180.585938 195.507812 177.292969 197.4375 C 176.847656 195.804688 176.429688 194.183594 176.039062 192.582031 L 176.035156 192.582031 L 186.886719 191.375 Z M 101.117188 178.140625 C 102.25 180.820312 103.660156 183.425781 105.34375 185.957031 C 105.382812 186.015625 105.425781 186.070312 105.472656 186.121094 C 107.703125 188.710938 110.25 190.855469 113.109375 192.550781 C 111.828125 196.304688 112.171875 199.796875 114.132812 203.03125 C 107.894531 202.980469 101.957031 202.941406 96.316406 202.910156 C 97.25 194.542969 98.851562 186.289062 101.117188 178.140625 Z M 116.199219 194.15625 C 120.933594 196.289062 126.410156 197.367188 132.632812 197.394531 C 132.636719 197.394531 132.640625 197.394531 132.640625 197.394531 C 132.703125 197.394531 132.765625 197.390625 132.832031 197.382812 L 145.992188 195.921875 L 145.996094 195.921875 C 145.253906 196.445312 144.484375 196.933594 143.691406 197.390625 C 143.652344 197.410156 143.617188 197.433594 143.578125 197.460938 C 138.941406 200.605469 131.398438 202.480469 120.949219 203.085938 C 120.117188 203.082031 119.289062 203.074219 118.464844 203.066406 C 116.078125 200.289062 115.324219 197.320312 116.195312 194.15625 Z M 172.617188 192.964844 C 173.109375 195.015625 173.648438 197.089844 174.234375 199.191406 L 174.230469 199.191406 C 172.140625 200.363281 170.015625 201.496094 167.851562 202.597656 L 167.847656 202.597656 C 154.738281 208.058594 144.171875 210.789062 136.144531 210.789062 C 131.167969 210.789062 127.171875 209.738281 124.144531 207.644531 C 124.117188 207.625 124.089844 207.605469 124.058594 207.585938 C 123.425781 207.203125 122.828125 206.816406 122.269531 206.421875 L 122.265625 206.421875 C 132.722656 205.710938 140.445312 203.679688 145.429688 200.328125 L 145.425781 200.328125 C 147.890625 198.914062 150.109375 197.21875 152.089844 195.246094 L 152.085938 195.246094 L 172.613281 192.964844 Z M 196.402344 190.34375 C 193.714844 199.238281 190.105469 207.617188 185.578125 215.480469 C 182.84375 211.359375 180.433594 206.457031 178.351562 200.773438 L 178.347656 200.773438 C 183.78125 197.621094 188.964844 194.230469 193.902344 190.597656 L 193.898438 190.597656 L 195.753906 190.390625 L 195.75 190.390625 C 195.96875 190.375 196.183594 190.359375 196.398438 190.34375 Z M 211.847656 189.742188 C 219.398438 189.742188 225.71875 190.265625 230.800781 191.3125 C 246.710938 194.570312 253.824219 200.691406 252.140625 209.675781 L 252.136719 209.675781 C 244.828125 224.160156 231.121094 231.492188 211.015625 231.675781 C 201.761719 230.894531 194.011719 226.511719 187.773438 218.527344 L 187.769531 218.527344 C 193.007812 209.695312 197.097656 200.222656 200.046875 190.109375 L 200.042969 190.109375 C 204.265625 189.863281 208.199219 189.742188 211.847656 189.742188 Z M 175.339844 202.484375 C 177.703125 208.816406 180.46875 214.230469 183.644531 218.726562 L 183.640625 218.726562 C 176.863281 229.667969 168.246094 239.574219 157.78125 248.441406 L 157.777344 248.441406 C 147.53125 256.597656 137.574219 260.671875 127.90625 260.671875 C 124.976562 260.671875 122.074219 260.296875 119.195312 259.550781 C 105.40625 254.644531 97.527344 244.589844 95.554688 229.382812 C 95.148438 221.605469 95.285156 213.917969 95.96875 206.320312 L 95.972656 206.320312 C 102.546875 206.355469 109.53125 206.40625 116.925781 206.464844 L 116.921875 206.464844 C 118.363281 207.859375 120.140625 209.203125 122.261719 210.488281 L 122.257812 210.488281 C 125.8125 212.929688 130.425781 214.152344 136.097656 214.152344 C 144.707031 214.152344 155.753906 211.339844 169.238281 205.714844 C 169.277344 205.699219 169.316406 205.679688 169.355469 205.660156 C 171.382812 204.632812 173.375 203.574219 175.339844 202.484375 Z M 157.957031 90.09375 C 157.933594 90.09375 157.90625 90.09375 157.878906 90.09375 C 139.441406 90.945312 122.332031 103.835938 106.542969 128.773438 C 106.515625 128.816406 106.492188 128.859375 106.46875 128.902344 C 98.105469 145.105469 95.683594 159.660156 99.195312 172.574219 L 99.191406 172.574219 C 96.109375 182.519531 94.003906 192.625 92.878906 202.890625 C 84.179688 202.847656 76.222656 202.824219 69.007812 202.824219 C 41.890625 202.824219 25.253906 203.136719 19.105469 203.761719 C 18.164062 203.855469 17.480469 204.695312 17.578125 205.632812 C 17.667969 206.507812 18.410156 207.164062 19.273438 207.164062 C 19.332031 207.164062 19.390625 207.160156 19.449219 207.15625 C 25.496094 206.542969 41.945312 206.234375 68.792969 206.234375 C 75.96875 206.234375 83.882812 206.257812 92.542969 206.300781 C 91.863281 213.976562 91.730469 221.742188 92.144531 229.597656 C 92.144531 229.640625 92.148438 229.683594 92.15625 229.726562 C 94.289062 246.390625 102.941406 257.410156 118.113281 262.785156 C 118.15625 262.800781 118.203125 262.816406 118.25 262.828125 C 121.460938 263.671875 124.695312 264.09375 127.949219 264.09375 C 138.390625 264.09375 149.054688 259.753906 159.949219 251.074219 L 159.992188 251.042969 C 170.382812 242.234375 179.007812 232.433594 185.859375 221.640625 C 192.5625 229.785156 200.878906 234.265625 210.8125 235.082031 C 210.859375 235.085938 210.90625 235.085938 210.953125 235.085938 C 210.957031 235.085938 210.964844 235.085938 210.96875 235.085938 C 232.609375 234.910156 247.390625 226.875 255.304688 210.980469 C 255.371094 210.84375 255.421875 210.703125 255.449219 210.554688 C 257.726562 199.238281 249.738281 191.710938 231.488281 187.972656 C 226.1875 186.878906 219.632812 186.332031 211.824219 186.332031 C 208.453125 186.332031 204.84375 186.433594 201.003906 186.636719 C 201.179688 185.980469 201.347656 185.316406 201.507812 184.652344 L 201.503906 184.652344 C 202.5 183.824219 203.484375 182.988281 204.457031 182.136719 L 204.460938 182.136719 C 237.679688 182.835938 283 184.144531 340.417969 186.058594 C 340.4375 186.058594 340.457031 186.058594 340.476562 186.058594 C 341.394531 186.058594 342.152344 185.332031 342.183594 184.410156 C 342.214844 183.46875 341.476562 182.679688 340.53125 182.648438 C 285.226562 180.804688 241.097656 179.527344 208.148438 178.820312 L 208.144531 178.820312 C 213.390625 173.949219 218.292969 168.742188 222.847656 163.199219 L 222.84375 163.199219 C 236.179688 148.734375 243.183594 134.339844 243.847656 120.011719 C 243.851562 119.941406 243.851562 119.867188 243.84375 119.792969 C 242.675781 105.5 234.238281 97.382812 218.53125 95.445312 C 218.460938 95.4375 218.390625 95.433594 218.320312 95.433594 C 218.273438 95.433594 218.226562 95.433594 218.179688 95.4375 C 207.535156 96.316406 198.394531 100.105469 190.765625 106.796875 C 182.957031 97.324219 172.085938 91.761719 158.160156 90.105469 C 158.09375 90.097656 158.027344 90.09375 157.957031 90.09375 Z M 157.957031 90.09375 " fill-opacity="1" fill-rule="nonzero"/></g><path fill="#000000" d="M 20.5 206.441406 C 20.296875 210.695312 16.679688 213.976562 12.421875 213.773438 C 8.164062 213.570312 4.878906 209.960938 5.082031 205.707031 C 5.285156 201.457031 8.902344 198.175781 13.160156 198.378906 C 17.417969 198.578125 20.703125 202.191406 20.5 206.441406 M 17.085938 206.28125 C 17.199219 203.910156 15.367188 201.898438 12.996094 201.785156 C 10.621094 201.671875 8.605469 203.5 8.492188 205.871094 C 8.378906 208.242188 10.210938 210.253906 12.585938 210.367188 C 14.957031 210.480469 16.972656 208.648438 17.085938 206.28125 Z M 17.085938 206.28125 " fill-opacity="1" fill-rule="nonzero"/><path fill="#000000" d="M 341.695312 174.769531 C 340.789062 174.769531 340.035156 175.476562 339.988281 176.390625 C 339.945312 177.289062 339.886719 178.914062 339.820312 181.269531 C 339.78125 182.25 339.757812 182.84375 339.746094 183.050781 L 339.746094 183.054688 C 339.621094 185.359375 339.421875 188.820312 339.148438 193.433594 C 339.089844 194.371094 339.808594 195.179688 340.75 195.238281 C 340.785156 195.238281 340.820312 195.238281 340.855469 195.238281 C 341.75 195.238281 342.503906 194.542969 342.558594 193.636719 C 342.832031 189.023438 343.03125 185.5625 343.15625 183.246094 C 343.167969 183.015625 343.195312 182.394531 343.234375 181.386719 L 343.234375 181.367188 C 343.304688 179.039062 343.359375 177.4375 343.402344 176.558594 C 343.449219 175.621094 342.722656 174.820312 341.78125 174.769531 C 341.753906 174.769531 341.722656 174.769531 341.695312 174.769531 Z M 341.695312 174.769531 " fill-opacity="1" fill-rule="nonzero"/><path fill="#000000" d="M 366.398438 190.097656 L 366.394531 190.097656 Z M 341.835938 174.339844 C 341.210938 174.339844 340.605469 174.683594 340.304688 175.28125 C 339.882812 176.121094 340.226562 177.148438 341.070312 177.570312 L 341.078125 177.574219 C 350.929688 182.5 358.265625 186.136719 363.085938 188.492188 L 363.078125 188.492188 C 353.066406 189.875 345.609375 191.078125 340.710938 192.097656 C 339.789062 192.289062 339.195312 193.195312 339.390625 194.117188 C 339.558594 194.921875 340.269531 195.472656 341.058594 195.472656 C 341.175781 195.472656 341.292969 195.460938 341.410156 195.4375 C 346.5 194.375 354.429688 193.113281 365.210938 191.644531 L 365.269531 191.632812 C 366.726562 191.382812 367.710938 191.144531 368.234375 190.914062 C 368.417969 190.832031 368.582031 190.738281 368.722656 190.636719 C 369.617188 189.980469 369.824219 189.230469 369.347656 188.386719 L 369.34375 188.386719 C 369.167969 187.941406 368.828125 187.566406 368.332031 187.261719 C 368.1875 187.171875 368.027344 187.089844 367.847656 187.007812 L 367.84375 187.007812 C 363.449219 184.898438 355.035156 180.734375 342.605469 174.523438 L 342.597656 174.519531 C 342.351562 174.394531 342.09375 174.339844 341.835938 174.339844 Z M 341.835938 174.339844 " fill-opacity="1" fill-rule="nonzero"/></svg>