<svg xmlns="http://www.w3.org/2000/svg" xmlns:xlink="http://www.w3.org/1999/xlink" width="500" zoomAndPan="magnify" viewBox="0 0 375 374.999991" height="500" preserveAspectRatio="xMidYMid meet" version="1.2"><defs><clipPath id="9771fb78e1"><path d="M 52 94.640625 L 311 94.640625 L 311 233.390625 L 52 233.390625 Z M 52 94.640625 "/></clipPath><clipPath id="82398e6169"><path d="M 42.148438 180 L 55 180 L 55 194 L 42.148438 194 Z M 42.148438 180 "/></clipPath></defs><g id="f61b51c12a"><g style="fill:#000000;fill-opacity:1;"><g transform="translate(43.253486, 284.536734)"><path style="stroke:none" d="M 36.46875 -18.5 C 36.46875 -22.65625 34.988281 -26.210938 32.03125 -29.171875 C 29.070312 -32.128906 25.5 -33.609375 21.3125 -33.609375 C 17.164062 -33.609375 13.613281 -32.128906 10.65625 -29.171875 C 7.695312 -26.210938 6.21875 -22.65625 6.21875 -18.5 C 6.21875 -14.320312 7.695312 -10.753906 10.65625 -7.796875 C 13.613281 -4.835938 17.164062 -3.359375 21.3125 -3.359375 C 25.5 -3.359375 29.070312 -4.835938 32.03125 -7.796875 C 34.988281 -10.753906 36.46875 -14.320312 36.46875 -18.5 Z M 40.25 -18.5 C 40.25 -15.90625 39.765625 -13.453125 38.796875 -11.140625 C 37.785156 -8.835938 36.429688 -6.835938 34.734375 -5.140625 C 33.003906 -3.410156 30.984375 -2.054688 28.671875 -1.078125 C 26.367188 -0.0664062 23.914062 0.4375 21.3125 0.4375 C 18.71875 0.4375 16.285156 -0.0664062 14.015625 -1.078125 C 11.703125 -2.054688 9.703125 -3.410156 8.015625 -5.140625 C 6.273438 -6.835938 4.921875 -8.835938 3.953125 -11.140625 C 2.941406 -13.453125 2.4375 -15.90625 2.4375 -18.5 C 2.4375 -21.101562 2.941406 -23.554688 3.953125 -25.859375 C 4.921875 -28.171875 6.273438 -30.175781 8.015625 -31.875 C 9.703125 -33.5625 11.703125 -34.910156 14.015625 -35.921875 C 16.285156 -36.898438 18.71875 -37.390625 21.3125 -37.390625 C 23.914062 -37.390625 26.367188 -36.898438 28.671875 -35.921875 C 30.984375 -34.910156 33.003906 -33.5625 34.734375 -31.875 C 36.429688 -30.175781 37.785156 -28.171875 38.796875 -25.859375 C 39.765625 -23.554688 40.25 -21.101562 40.25 -18.5 Z M 40.25 -18.5 "/></g></g><g style="fill:#000000;fill-opacity:1;"><g transform="translate(84.848678, 284.536734)"><path style="stroke:none" d="M 25.921875 -33.28125 L 7.84375 -33.28125 L 7.84375 -20.1875 L 25.375 -20.1875 L 25.375 -16.609375 L 7.84375 -16.609375 L 7.84375 0 L 4.0625 0 L 4.0625 -36.796875 L 25.921875 -36.796875 Z M 25.921875 -33.28125 "/></g></g><g style="fill:#000000;fill-opacity:1;"><g transform="translate(110.757672, 284.536734)"><path style="stroke:none" d="M 25.921875 -33.28125 L 7.84375 -33.28125 L 7.84375 -20.1875 L 25.375 -20.1875 L 25.375 -16.609375 L 7.84375 -16.609375 L 7.84375 0 L 4.0625 0 L 4.0625 -36.796875 L 25.921875 -36.796875 Z M 25.921875 -33.28125 "/></g></g><g style="fill:#000000;fill-opacity:1;"><g transform="translate(136.666666, 284.536734)"><path style="stroke:none" d="M 7.84375 -18.234375 L 16.390625 -18.234375 C 18.523438 -18.234375 20.273438 -18.957031 21.640625 -20.40625 C 23.046875 -21.84375 23.75 -23.644531 23.75 -25.8125 C 23.75 -27.976562 23.082031 -29.742188 21.75 -31.109375 C 20.414062 -32.484375 18.628906 -33.171875 16.390625 -33.171875 L 7.84375 -33.171875 Z M 27.546875 -25.703125 C 27.546875 -22.492188 26.40625 -19.820312 24.125 -17.6875 C 21.894531 -15.601562 19.140625 -14.5625 15.859375 -14.5625 L 7.84375 -14.5625 L 7.84375 0 L 4.0625 0 L 4.0625 -36.796875 L 15.859375 -36.796875 C 19.097656 -36.796875 21.851562 -35.765625 24.125 -33.703125 C 26.40625 -31.617188 27.546875 -28.953125 27.546875 -25.703125 Z M 27.546875 -25.703125 "/></g></g><g style="fill:#000000;fill-opacity:1;"><g transform="translate(164.198363, 284.536734)"><path style="stroke:none" d="M 10.015625 -13.53125 L 23.375 -13.53125 L 16.71875 -30.46875 Z M 32.84375 0 L 28.734375 0 L 24.78125 -10.015625 L 8.609375 -10.015625 L 4.65625 0 L 0.546875 0 L 16.71875 -39.34375 Z M 32.84375 0 "/></g></g><g style="fill:#000000;fill-opacity:1;"><g transform="translate(196.490009, 284.536734)"><path style="stroke:none" d="M 1.078125 -33.390625 L 1.078125 -36.90625 L 22.71875 -36.90625 L 22.71875 -33.390625 L 13.796875 -33.390625 L 13.796875 -0.109375 L 10.015625 -0.109375 L 10.015625 -33.390625 Z M 1.078125 -33.390625 "/></g></g><g style="fill:#000000;fill-opacity:1;"><g transform="translate(219.207665, 284.536734)"><path style="stroke:none" d="M 1.078125 -33.390625 L 1.078125 -36.90625 L 22.71875 -36.90625 L 22.71875 -33.390625 L 13.796875 -33.390625 L 13.796875 -0.109375 L 10.015625 -0.109375 L 10.015625 -33.390625 Z M 1.078125 -33.390625 "/></g></g><g style="fill:#000000;fill-opacity:1;"><g transform="translate(241.92532, 284.536734)"><path style="stroke:none" d="M 25.921875 0 L 4.0625 0 L 4.0625 -36.796875 L 25.921875 -36.796875 L 25.921875 -33.28125 L 7.84375 -33.28125 L 7.84375 -20.1875 L 25.375 -20.1875 L 25.375 -16.609375 L 7.84375 -16.609375 L 7.84375 -3.515625 L 25.921875 -3.515625 Z M 25.921875 0 "/></g></g><g style="fill:#000000;fill-opacity:1;"><g transform="translate(270.809277, 284.536734)"><path style="stroke:none" d="M 7.84375 -18.1875 L 16.390625 -18.1875 C 18.523438 -18.1875 20.273438 -18.90625 21.640625 -20.34375 C 23.046875 -21.820312 23.75 -23.644531 23.75 -25.8125 C 23.75 -27.9375 23.082031 -29.703125 21.75 -31.109375 C 20.414062 -32.484375 18.628906 -33.171875 16.390625 -33.171875 L 7.84375 -33.171875 Z M 27.546875 -25.703125 C 27.546875 -22.492188 26.40625 -19.820312 24.125 -17.6875 C 22.113281 -15.8125 19.679688 -14.785156 16.828125 -14.609375 L 28.140625 0 L 23.046875 0 L 12.28125 -14.5625 L 7.84375 -14.5625 L 7.84375 0 L 4.0625 0 L 4.0625 -36.796875 L 15.859375 -36.796875 C 19.140625 -36.796875 21.894531 -35.765625 24.125 -33.703125 C 26.40625 -31.546875 27.546875 -28.878906 27.546875 -25.703125 Z M 27.546875 -25.703125 "/></g></g><g style="fill:#000000;fill-opacity:1;"><g transform="translate(299.15232, 284.536734)"><path style="stroke:none" d="M 7.84375 -27.109375 L 7.84375 0 L 4.0625 0 L 4.0625 -39.125 L 24.734375 -9.734375 L 24.734375 -36.796875 L 28.515625 -36.796875 L 28.515625 2.265625 Z M 7.84375 -27.109375 "/></g></g><g style="fill:#000000;fill-opacity:1;"><g transform="translate(153.13085, 303.729237)"><path style="stroke:none" d="M 1.109375 0 L 1.109375 -12.5 L 3.859375 -12.5 L 3.859375 -2.5 L 8.34375 -2.5 L 8.34375 0 Z M 1.109375 0 "/></g></g><g style="fill:#000000;fill-opacity:1;"><g transform="translate(170.568509, 303.729237)"><path style="stroke:none" d="M 7.90625 -4.78125 L 6.328125 -9.234375 L 4.75 -4.78125 Z M 12.578125 0 L 9.625 0 L 8.71875 -2.515625 L 3.953125 -2.515625 L 3.046875 0 L 0.09375 0 L 5.171875 -12.5 L 7.5 -12.5 Z M 12.578125 0 "/></g></g><g style="fill:#000000;fill-opacity:1;"><g transform="translate(191.68351, 303.729237)"><path style="stroke:none" d="M 7.140625 -3.65625 C 7.140625 -4.0625 6.988281 -4.414062 6.6875 -4.71875 C 6.382812 -5.019531 6.023438 -5.171875 5.609375 -5.171875 L 3.859375 -5.171875 L 3.859375 -2.15625 L 5.609375 -2.15625 C 6.023438 -2.15625 6.382812 -2.300781 6.6875 -2.59375 C 6.988281 -2.882812 7.140625 -3.238281 7.140625 -3.65625 Z M 6.265625 -8.875 C 6.265625 -9.28125 6.117188 -9.625 5.828125 -9.90625 C 5.546875 -10.1875 5.207031 -10.328125 4.8125 -10.328125 L 3.859375 -10.328125 L 3.859375 -7.4375 L 4.8125 -7.4375 C 5.207031 -7.4375 5.546875 -7.578125 5.828125 -7.859375 C 6.117188 -8.148438 6.265625 -8.488281 6.265625 -8.875 Z M 9.953125 -3.59375 C 9.953125 -2.507812 9.617188 -1.640625 8.953125 -0.984375 C 8.296875 -0.328125 7.363281 0 6.15625 0 L 1.109375 0 L 1.109375 -12.5 L 5.40625 -12.5 C 6.113281 -12.5 6.726562 -12.359375 7.25 -12.078125 C 7.769531 -11.796875 8.175781 -11.421875 8.46875 -10.953125 C 8.757812 -10.484375 8.90625 -9.957031 8.90625 -9.375 C 8.90625 -8.738281 8.769531 -8.191406 8.5 -7.734375 C 8.238281 -7.273438 7.875 -6.941406 7.40625 -6.734375 C 8.101562 -6.566406 8.703125 -6.210938 9.203125 -5.671875 C 9.703125 -5.128906 9.953125 -4.4375 9.953125 -3.59375 Z M 9.953125 -3.59375 "/></g></g><g style="fill:#000000;fill-opacity:1;"><g transform="translate(210.261149, 303.729237)"><path style="stroke:none" d="M 5.953125 -1.953125 C 6.253906 -1.953125 6.578125 -1.992188 6.921875 -2.078125 C 7.265625 -2.171875 7.5625 -2.328125 7.8125 -2.546875 C 8.0625 -2.765625 8.1875 -3.054688 8.1875 -3.421875 C 8.1875 -3.765625 8.050781 -4.039062 7.78125 -4.25 C 7.519531 -4.457031 7.175781 -4.628906 6.75 -4.765625 C 6.320312 -4.898438 5.851562 -5.023438 5.34375 -5.140625 C 4.832031 -5.253906 4.316406 -5.394531 3.796875 -5.5625 C 3.285156 -5.726562 2.816406 -5.945312 2.390625 -6.21875 C 1.960938 -6.488281 1.613281 -6.835938 1.34375 -7.265625 C 1.082031 -7.691406 0.953125 -8.238281 0.953125 -8.90625 C 0.953125 -9.550781 1.085938 -10.109375 1.359375 -10.578125 C 1.628906 -11.054688 1.988281 -11.453125 2.4375 -11.765625 C 2.882812 -12.078125 3.382812 -12.304688 3.9375 -12.453125 C 4.5 -12.609375 5.0625 -12.6875 5.625 -12.6875 C 6.488281 -12.6875 7.289062 -12.550781 8.03125 -12.28125 C 8.78125 -12.007812 9.390625 -11.582031 9.859375 -11 C 10.335938 -10.425781 10.585938 -9.660156 10.609375 -8.703125 L 7.9375 -8.703125 C 7.863281 -9.347656 7.632812 -9.796875 7.25 -10.046875 C 6.875 -10.296875 6.347656 -10.421875 5.671875 -10.421875 C 5.410156 -10.421875 5.132812 -10.378906 4.84375 -10.296875 C 4.550781 -10.210938 4.304688 -10.070312 4.109375 -9.875 C 3.910156 -9.6875 3.8125 -9.4375 3.8125 -9.125 C 3.8125 -8.800781 3.941406 -8.546875 4.203125 -8.359375 C 4.460938 -8.179688 4.804688 -8.03125 5.234375 -7.90625 C 5.671875 -7.78125 6.144531 -7.660156 6.65625 -7.546875 C 7.175781 -7.441406 7.6875 -7.3125 8.1875 -7.15625 C 8.695312 -7 9.164062 -6.78125 9.59375 -6.5 C 10.03125 -6.226562 10.378906 -5.867188 10.640625 -5.421875 C 10.898438 -4.984375 11.03125 -4.421875 11.03125 -3.734375 C 11.03125 -2.992188 10.882812 -2.363281 10.59375 -1.84375 C 10.300781 -1.332031 9.90625 -0.921875 9.40625 -0.609375 C 8.90625 -0.296875 8.34375 -0.0664062 7.71875 0.078125 C 7.101562 0.222656 6.476562 0.296875 5.84375 0.296875 C 4.925781 0.296875 4.066406 0.140625 3.265625 -0.171875 C 2.460938 -0.484375 1.8125 -0.960938 1.3125 -1.609375 C 0.8125 -2.265625 0.554688 -3.101562 0.546875 -4.125 L 3.34375 -4.125 C 3.382812 -3.375 3.660156 -2.820312 4.171875 -2.46875 C 4.691406 -2.125 5.285156 -1.953125 5.953125 -1.953125 Z M 5.953125 -1.953125 "/></g></g><g clip-rule="nonzero" clip-path="url(#9771fb78e1)"><path style=" stroke:none;fill-rule:nonzero;fill:#000000;fill-opacity:1;" d="M 164.089844 97.332031 C 174.378906 98.582031 182.425781 102.757812 188.226562 109.859375 L 188.222656 109.859375 C 184.132812 114 180.636719 119.285156 177.738281 125.726562 L 177.734375 125.738281 C 172.863281 136.824219 171.472656 149.867188 173.558594 164.871094 C 171.253906 164.851562 169.097656 164.839844 167.082031 164.835938 L 167.078125 164.835938 C 168.230469 160.820312 168.90625 156.257812 169.109375 151.140625 C 169.113281 151.113281 169.113281 151.082031 169.113281 151.054688 C 168.746094 136.476562 163.738281 127.550781 154.09375 124.277344 C 152.035156 123.550781 150.007812 123.1875 148.011719 123.1875 C 139.355469 123.1875 131.261719 130.019531 123.738281 143.683594 C 123.722656 143.710938 123.707031 143.742188 123.691406 143.769531 C 121.972656 147.519531 120.433594 151.296875 119.074219 155.101562 C 118.039062 146.621094 120.179688 137.210938 125.5 126.871094 L 125.496094 126.871094 C 137.53125 107.863281 150.394531 98.015625 164.085938 97.332031 Z M 189.894531 112.074219 C 195.597656 120.269531 198.75 131.785156 199.351562 146.628906 L 199.347656 146.628906 C 199.066406 153.085938 198.324219 159.28125 197.113281 165.214844 C 189.277344 165.0625 182.34375 164.957031 176.316406 164.894531 L 176.3125 164.894531 C 174.214844 150.238281 175.519531 137.554688 180.222656 126.84375 C 182.910156 120.867188 186.136719 115.945312 189.894531 112.074219 Z M 212.199219 101.59375 C 223.132812 102.984375 229.015625 108.605469 229.84375 118.449219 L 229.839844 118.449219 C 229.308594 129.179688 223.972656 140.050781 213.824219 151.066406 L 213.773438 151.125 C 209.609375 156.203125 205.074219 160.917969 200.164062 165.277344 C 200.070312 165.277344 199.980469 165.273438 199.886719 165.273438 L 199.882812 165.273438 C 201.066406 159.320312 201.796875 153.117188 202.070312 146.65625 C 202.074219 146.621094 202.074219 146.582031 202.070312 146.542969 C 201.441406 130.890625 198.066406 118.75 191.945312 110.117188 L 191.941406 110.117188 C 197.597656 105.113281 204.351562 102.269531 212.195312 101.59375 Z M 176.734375 167.601562 C 182.503906 167.664062 189.101562 167.765625 196.53125 167.914062 L 196.527344 167.914062 C 196.484375 168.109375 196.4375 168.300781 196.390625 168.496094 C 194.875 169.738281 193.324219 170.949219 191.742188 172.128906 L 191.738281 172.128906 L 177.921875 173.667969 C 177.464844 171.609375 177.070312 169.585938 176.734375 167.601562 Z M 148.125 125.941406 C 149.796875 125.941406 151.484375 126.242188 153.1875 126.84375 L 153.203125 126.847656 C 161.65625 129.710938 166.054688 137.796875 166.390625 151.109375 L 166.386719 151.109375 C 166.175781 156.304688 165.457031 160.878906 164.234375 164.835938 C 154.742188 164.851562 148.976562 165.054688 146.9375 165.453125 L 146.933594 165.453125 C 138.882812 166.175781 133.132812 168.992188 129.679688 173.890625 C 127.722656 172.714844 125.976562 171.246094 124.449219 169.484375 L 124.445312 169.484375 C 122.53125 166.59375 121.105469 163.566406 120.167969 160.394531 C 121.8125 155.195312 123.804688 150.054688 126.136719 144.972656 L 126.132812 144.972656 C 133.128906 132.285156 140.457031 125.941406 148.125 125.941406 Z M 166.207031 167.53125 C 168.578125 167.535156 171.167969 167.546875 173.972656 167.574219 L 173.96875 167.574219 C 174.316406 169.667969 174.722656 171.800781 175.199219 173.96875 L 162.058594 175.433594 C 163.738281 173.144531 165.121094 170.511719 166.207031 167.53125 Z M 163.285156 167.53125 C 161.980469 170.800781 160.277344 173.578125 158.167969 175.863281 L 143.894531 177.453125 C 139.429688 177.425781 135.507812 176.660156 132.125 175.160156 C 135.144531 171.113281 140.1875 168.777344 147.25 168.15625 C 147.304688 168.148438 147.355469 168.140625 147.40625 168.132812 C 149.226562 167.757812 154.519531 167.558594 163.28125 167.53125 Z M 187.1875 175.375 C 184.714844 177.058594 182.164062 178.667969 179.542969 180.207031 C 179.183594 178.902344 178.851562 177.613281 178.539062 176.335938 L 187.183594 175.375 Z M 118.851562 164.820312 C 119.753906 166.957031 120.878906 169.035156 122.21875 171.050781 C 122.25 171.097656 122.285156 171.140625 122.320312 171.183594 C 124.097656 173.25 126.128906 174.957031 128.40625 176.3125 C 127.386719 179.304688 127.65625 182.089844 129.21875 184.667969 C 124.25 184.628906 119.519531 184.597656 115.027344 184.570312 C 115.769531 177.898438 117.046875 171.316406 118.851562 164.820312 Z M 130.867188 177.589844 C 134.636719 179.289062 139.003906 180.152344 143.960938 180.171875 C 143.960938 180.171875 143.964844 180.171875 143.96875 180.171875 C 144.015625 180.171875 144.066406 180.171875 144.117188 180.164062 L 154.601562 179 L 154.605469 179 C 154.015625 179.414062 153.402344 179.804688 152.769531 180.167969 C 152.738281 180.1875 152.710938 180.207031 152.679688 180.222656 C 148.984375 182.734375 142.976562 184.230469 134.652344 184.710938 C 133.988281 184.707031 133.328125 184.703125 132.671875 184.695312 C 130.773438 182.480469 130.171875 180.113281 130.867188 177.589844 Z M 175.8125 176.640625 C 176.207031 178.273438 176.636719 179.929688 177.105469 181.605469 L 177.101562 181.605469 C 175.4375 182.539062 173.742188 183.445312 172.019531 184.320312 L 172.015625 184.320312 C 161.570312 188.675781 153.152344 190.851562 146.757812 190.851562 C 142.792969 190.851562 139.609375 190.015625 137.199219 188.34375 C 137.175781 188.328125 137.152344 188.316406 137.128906 188.300781 C 136.625 187.996094 136.148438 187.683594 135.703125 187.371094 C 144.03125 186.804688 150.183594 185.1875 154.15625 182.511719 L 154.152344 182.511719 C 156.113281 181.382812 157.882812 180.03125 159.460938 178.457031 Z M 194.765625 174.550781 C 192.621094 181.644531 189.746094 188.324219 186.140625 194.59375 C 183.960938 191.308594 182.042969 187.398438 180.382812 182.867188 C 184.710938 180.355469 188.839844 177.648438 192.773438 174.753906 L 192.769531 174.753906 L 194.246094 174.589844 C 194.417969 174.574219 194.589844 174.5625 194.761719 174.550781 Z M 207.070312 174.070312 C 213.085938 174.070312 218.117188 174.488281 222.167969 175.324219 C 234.84375 177.921875 240.511719 182.800781 239.171875 189.96875 L 239.167969 189.96875 C 233.34375 201.515625 222.421875 207.363281 206.40625 207.507812 C 199.03125 206.886719 192.859375 203.390625 187.886719 197.023438 C 192.058594 189.980469 195.320312 182.429688 197.667969 174.363281 L 197.664062 174.363281 C 201.027344 174.167969 204.164062 174.070312 207.070312 174.070312 Z M 177.984375 184.230469 C 179.867188 189.28125 182.070312 193.597656 184.597656 197.183594 C 179.199219 205.910156 172.332031 213.804688 163.996094 220.878906 L 163.992188 220.878906 C 155.828125 227.382812 147.894531 230.632812 140.195312 230.632812 C 137.859375 230.632812 135.546875 230.332031 133.253906 229.734375 C 122.269531 225.824219 115.992188 217.804688 114.421875 205.683594 L 114.417969 205.683594 C 114.097656 199.480469 114.207031 193.347656 114.75 187.289062 L 114.753906 187.289062 C 119.992188 187.320312 125.554688 187.359375 131.445312 187.40625 C 132.589844 188.519531 134.007812 189.589844 135.699219 190.613281 L 135.695312 190.613281 C 138.527344 192.5625 142.203125 193.535156 146.722656 193.535156 C 153.578125 193.535156 162.378906 191.292969 173.125 186.808594 C 173.15625 186.792969 173.1875 186.78125 173.214844 186.765625 C 174.832031 185.945312 176.417969 185.097656 177.984375 184.230469 Z M 164.136719 94.609375 C 164.117188 94.609375 164.09375 94.609375 164.074219 94.609375 C 149.386719 95.289062 135.753906 105.570312 123.171875 125.453125 C 123.152344 125.488281 123.132812 125.523438 123.113281 125.558594 C 116.453125 138.476562 114.523438 150.085938 117.320312 160.378906 L 117.316406 160.378906 C 114.859375 168.308594 113.183594 176.367188 112.289062 184.554688 C 105.359375 184.519531 99.019531 184.503906 93.269531 184.503906 C 71.667969 184.503906 58.414062 184.753906 53.511719 185.25 C 52.765625 185.324219 52.222656 185.992188 52.296875 186.742188 C 52.367188 187.441406 52.960938 187.964844 53.648438 187.964844 C 53.695312 187.964844 53.742188 187.960938 53.789062 187.957031 C 58.605469 187.46875 71.710938 187.222656 93.101562 187.222656 C 98.816406 187.222656 105.121094 187.238281 112.019531 187.273438 C 111.480469 193.394531 111.375 199.589844 111.703125 205.851562 C 111.703125 205.886719 111.707031 205.921875 111.710938 205.953125 C 113.410156 219.242188 120.304688 228.03125 132.390625 232.316406 C 132.425781 232.328125 132.464844 232.339844 132.5 232.351562 C 135.058594 233.023438 137.636719 233.359375 140.230469 233.359375 C 148.546875 233.359375 157.042969 229.898438 165.722656 222.976562 L 165.753906 222.953125 C 174.035156 215.929688 180.90625 208.113281 186.363281 199.507812 L 186.367188 199.507812 C 191.703125 206 198.332031 209.574219 206.246094 210.222656 C 206.28125 210.226562 206.320312 210.230469 206.355469 210.230469 C 206.359375 210.230469 206.363281 210.230469 206.367188 210.230469 C 223.609375 210.089844 235.386719 203.679688 241.691406 191.003906 C 241.746094 190.898438 241.785156 190.785156 241.808594 190.667969 C 243.621094 181.640625 237.257812 175.640625 222.71875 172.660156 C 218.492188 171.789062 213.269531 171.351562 207.050781 171.351562 C 204.363281 171.351562 201.492188 171.433594 198.429688 171.597656 C 198.570312 171.070312 198.703125 170.542969 198.832031 170.011719 L 198.828125 170.011719 C 199.621094 169.351562 200.40625 168.683594 201.183594 168.007812 C 227.648438 168.5625 263.753906 169.605469 309.5 171.132812 C 309.515625 171.132812 309.53125 171.132812 309.546875 171.132812 C 310.277344 171.132812 310.878906 170.554688 310.90625 169.820312 C 310.929688 169.070312 310.339844 168.441406 309.589844 168.414062 C 265.527344 166.941406 230.371094 165.925781 204.121094 165.359375 C 208.300781 161.476562 212.203125 157.324219 215.832031 152.90625 L 215.828125 152.90625 C 226.457031 141.371094 232.035156 129.890625 232.5625 118.46875 C 232.566406 118.410156 232.566406 118.351562 232.5625 118.292969 C 231.628906 106.894531 224.90625 100.421875 212.394531 98.878906 C 212.339844 98.871094 212.28125 98.867188 212.226562 98.867188 C 212.1875 98.867188 212.152344 98.867188 212.113281 98.871094 C 203.632812 99.574219 196.351562 102.59375 190.273438 107.929688 C 184.050781 100.375 175.394531 95.9375 164.296875 94.617188 C 164.242188 94.613281 164.191406 94.609375 164.136719 94.609375 Z M 164.136719 94.609375 "/></g><g clip-rule="nonzero" clip-path="url(#82398e6169)"><path style=" stroke:none;fill-rule:nonzero;fill:#000000;fill-opacity:1;" d="M 54.625 187.386719 C 54.464844 190.777344 51.582031 193.394531 48.191406 193.234375 C 44.796875 193.074219 42.179688 190.191406 42.339844 186.800781 C 42.503906 183.410156 45.382812 180.792969 48.777344 180.957031 C 52.167969 181.117188 54.789062 183.996094 54.625 187.386719 M 51.90625 187.257812 C 51.996094 185.367188 50.539062 183.765625 48.648438 183.671875 C 46.757812 183.582031 45.148438 185.042969 45.058594 186.933594 C 44.96875 188.820312 46.429688 190.425781 48.320312 190.515625 C 50.210938 190.605469 51.816406 189.148438 51.90625 187.257812 Z M 51.90625 187.257812 "/></g><path style=" stroke:none;fill-rule:nonzero;fill:#000000;fill-opacity:1;" d="M 310.515625 162.132812 C 309.796875 162.132812 309.195312 162.695312 309.160156 163.421875 C 309.121094 164.140625 309.078125 165.4375 309.023438 167.316406 C 308.992188 168.097656 308.972656 168.570312 308.964844 168.734375 L 308.964844 168.738281 C 308.863281 170.578125 308.707031 173.335938 308.488281 177.011719 C 308.441406 177.761719 309.015625 178.40625 309.765625 178.453125 C 309.792969 178.453125 309.820312 178.453125 309.847656 178.453125 C 310.5625 178.453125 311.160156 177.898438 311.203125 177.175781 C 311.421875 173.5 311.582031 170.738281 311.679688 168.890625 C 311.691406 168.707031 311.710938 168.210938 311.742188 167.40625 L 311.746094 167.394531 C 311.796875 165.535156 311.84375 164.257812 311.875 163.558594 C 311.914062 162.808594 311.335938 162.171875 310.585938 162.132812 C 310.5625 162.132812 310.539062 162.132812 310.515625 162.132812 Z M 310.515625 162.132812 "/><path style=" stroke:none;fill-rule:nonzero;fill:#000000;fill-opacity:1;" d="M 330.199219 174.355469 L 330.195312 174.355469 Z M 310.628906 161.789062 C 310.128906 161.789062 309.648438 162.0625 309.410156 162.539062 C 309.074219 163.210938 309.347656 164.027344 310.019531 164.363281 L 310.023438 164.367188 C 317.875 168.292969 323.71875 171.195312 327.558594 173.074219 L 327.554688 173.074219 C 319.574219 174.175781 313.636719 175.132812 309.734375 175.949219 C 308.996094 176.101562 308.527344 176.824219 308.679688 177.558594 C 308.8125 178.199219 309.378906 178.640625 310.011719 178.640625 C 310.101562 178.640625 310.195312 178.632812 310.289062 178.613281 C 314.34375 177.765625 320.664062 176.757812 329.25 175.585938 L 329.296875 175.578125 C 330.457031 175.378906 331.246094 175.1875 331.660156 175.003906 C 331.808594 174.9375 331.9375 174.867188 332.050781 174.78125 C 332.761719 174.261719 332.925781 173.664062 332.546875 172.992188 L 332.542969 172.992188 C 332.402344 172.632812 332.136719 172.335938 331.738281 172.09375 C 331.625 172.023438 331.496094 171.953125 331.351562 171.890625 C 327.847656 170.207031 321.144531 166.890625 311.242188 161.933594 L 311.238281 161.929688 C 311.042969 161.832031 310.832031 161.789062 310.628906 161.789062 Z M 310.628906 161.789062 "/></g></svg>