<svg xmlns="http://www.w3.org/2000/svg" xmlns:xlink="http://www.w3.org/1999/xlink" width="500" zoomAndPan="magnify" viewBox="0 0 375 374.999991" height="500" preserveAspectRatio="xMidYMid meet" version="1.2"><defs><clipPath id="e0a3cd763d"><path d="M 52 94.640625 L 311 94.640625 L 311 233.390625 L 52 233.390625 Z M 52 94.640625 "/></clipPath><clipPath id="23986fb98d"><path d="M 42.148438 180 L 55 180 L 55 194 L 42.148438 194 Z M 42.148438 180 "/></clipPath></defs><g id="175e71d452"><g style="fill:#ffffff;fill-opacity:1;"><g transform="translate(43.253486, 284.536734)"><path style="stroke:none" d="M 36.46875 -18.5 C 36.46875 -22.65625 34.988281 -26.210938 32.03125 -29.171875 C 29.070312 -32.128906 25.5 -33.609375 21.3125 -33.609375 C 17.164062 -33.609375 13.613281 -32.128906 10.65625 -29.171875 C 7.695312 -26.210938 6.21875 -22.65625 6.21875 -18.5 C 6.21875 -14.320312 7.695312 -10.753906 10.65625 -7.796875 C 13.613281 -4.835938 17.164062 -3.359375 21.3125 -3.359375 C 25.5 -3.359375 29.070312 -4.835938 32.03125 -7.796875 C 34.988281 -10.753906 36.46875 -14.320312 36.46875 -18.5 Z M 40.25 -18.5 C 40.25 -15.90625 39.765625 -13.453125 38.796875 -11.140625 C 37.785156 -8.835938 36.429688 -6.835938 34.734375 -5.140625 C 33.003906 -3.410156 30.984375 -2.054688 28.671875 -1.078125 C 26.367188 -0.0664062 23.914062 0.4375 21.3125 0.4375 C 18.71875 0.4375 16.285156 -0.0664062 14.015625 -1.078125 C 11.703125 -2.054688 9.703125 -3.410156 8.015625 -5.140625 C 6.273438 -6.835938 4.921875 -8.835938 3.953125 -11.140625 C 2.941406 -13.453125 2.4375 -15.90625 2.4375 -18.5 C 2.4375 -21.101562 2.941406 -23.554688 3.953125 -25.859375 C 4.921875 -28.171875 6.273438 -30.175781 8.015625 -31.875 C 9.703125 -33.5625 11.703125 -34.910156 14.015625 -35.921875 C 16.285156 -36.898438 18.71875 -37.390625 21.3125 -37.390625 C 23.914062 -37.390625 26.367188 -36.898438 28.671875 -35.921875 C 30.984375 -34.910156 33.003906 -33.5625 34.734375 -31.875 C 36.429688 -30.175781 37.785156 -28.171875 38.796875 -25.859375 C 39.765625 -23.554688 40.25 -21.101562 40.25 -18.5 Z M 40.25 -18.5 "/></g></g><g style="fill:#ffffff;fill-opacity:1;"><g transform="translate(84.848678, 284.536734)"><path style="stroke:none" d="M 25.921875 -33.28125 L 7.84375 -33.28125 L 7.84375 -20.1875 L 25.375 -20.1875 L 25.375 -16.609375 L 7.84375 -16.609375 L 7.84375 0 L 4.0625 0 L 4.0625 -36.796875 L 25.921875 -36.796875 Z M 25.921875 -33.28125 "/></g></g><g style="fill:#ffffff;fill-opacity:1;"><g transform="translate(110.757672, 284.536734)"><path style="stroke:none" d="M 25.921875 -33.28125 L 7.84375 -33.28125 L 7.84375 -20.1875 L 25.375 -20.1875 L 25.375 -16.609375 L 7.84375 -16.609375 L 7.84375 0 L 4.0625 0 L 4.0625 -36.796875 L 25.921875 -36.796875 Z M 25.921875 -33.28125 "/></g></g><g style="fill:#ffffff;fill-opacity:1;"><g transform="translate(136.666666, 284.536734)"><path style="stroke:none" d="M 7.84375 -18.234375 L 16.390625 -18.234375 C 18.523438 -18.234375 20.273438 -18.957031 21.640625 -20.40625 C 23.046875 -21.84375 23.75 -23.644531 23.75 -25.8125 C 23.75 -27.976562 23.082031 -29.742188 21.75 -31.109375 C 20.414062 -32.484375 18.628906 -33.171875 16.390625 -33.171875 L 7.84375 -33.171875 Z M 27.546875 -25.703125 C 27.546875 -22.492188 26.40625 -19.820312 24.125 -17.6875 C 21.894531 -15.601562 19.140625 -14.5625 15.859375 -14.5625 L 7.84375 -14.5625 L 7.84375 0 L 4.0625 0 L 4.0625 -36.796875 L 15.859375 -36.796875 C 19.097656 -36.796875 21.851562 -35.765625 24.125 -33.703125 C 26.40625 -31.617188 27.546875 -28.953125 27.546875 -25.703125 Z M 27.546875 -25.703125 "/></g></g><g style="fill:#ffffff;fill-opacity:1;"><g transform="translate(164.198363, 284.536734)"><path style="stroke:none" d="M 10.015625 -13.53125 L 23.375 -13.53125 L 16.71875 -30.46875 Z M 32.84375 0 L 28.734375 0 L 24.78125 -10.015625 L 8.609375 -10.015625 L 4.65625 0 L 0.546875 0 L 16.71875 -39.34375 Z M 32.84375 0 "/></g></g><g style="fill:#ffffff;fill-opacity:1;"><g transform="translate(196.490009, 284.536734)"><path style="stroke:none" d="M 1.078125 -33.390625 L 1.078125 -36.90625 L 22.71875 -36.90625 L 22.71875 -33.390625 L 13.796875 -33.390625 L 13.796875 -0.109375 L 10.015625 -0.109375 L 10.015625 -33.390625 Z M 1.078125 -33.390625 "/></g></g><g style="fill:#ffffff;fill-opacity:1;"><g transform="translate(219.207665, 284.536734)"><path style="stroke:none" d="M 1.078125 -33.390625 L 1.078125 -36.90625 L 22.71875 -36.90625 L 22.71875 -33.390625 L 13.796875 -33.390625 L 13.796875 -0.109375 L 10.015625 -0.109375 L 10.015625 -33.390625 Z M 1.078125 -33.390625 "/></g></g><g style="fill:#ffffff;fill-opacity:1;"><g transform="translate(241.92532, 284.536734)"><path style="stroke:none" d="M 25.921875 0 L 4.0625 0 L 4.0625 -36.796875 L 25.921875 -36.796875 L 25.921875 -33.28125 L 7.84375 -33.28125 L 7.84375 -20.1875 L 25.375 -20.1875 L 25.375 -16.609375 L 7.84375 -16.609375 L 7.84375 -3.515625 L 25.921875 -3.515625 Z M 25.921875 0 "/></g></g><g style="fill:#ffffff;fill-opacity:1;"><g transform="translate(270.809277, 284.536734)"><path style="stroke:none" d="M 7.84375 -18.1875 L 16.390625 -18.1875 C 18.523438 -18.1875 20.273438 -18.90625 21.640625 -20.34375 C 23.046875 -21.820312 23.75 -23.644531 23.75 -25.8125 C 23.75 -27.9375 23.082031 -29.703125 21.75 -31.109375 C 20.414062 -32.484375 18.628906 -33.171875 16.390625 -33.171875 L 7.84375 -33.171875 Z M 27.546875 -25.703125 C 27.546875 -22.492188 26.40625 -19.820312 24.125 -17.6875 C 22.113281 -15.8125 19.679688 -14.785156 16.828125 -14.609375 L 28.140625 0 L 23.046875 0 L 12.28125 -14.5625 L 7.84375 -14.5625 L 7.84375 0 L 4.0625 0 L 4.0625 -36.796875 L 15.859375 -36.796875 C 19.140625 -36.796875 21.894531 -35.765625 24.125 -33.703125 C 26.40625 -31.546875 27.546875 -28.878906 27.546875 -25.703125 Z M 27.546875 -25.703125 "/></g></g><g style="fill:#ffffff;fill-opacity:1;"><g transform="translate(299.15232, 284.536734)"><path style="stroke:none" d="M 7.84375 -27.109375 L 7.84375 0 L 4.0625 0 L 4.0625 -39.125 L 24.734375 -9.734375 L 24.734375 -36.796875 L 28.515625 -36.796875 L 28.515625 2.265625 Z M 7.84375 -27.109375 "/></g></g><g style="fill:#ffffff;fill-opacity:1;"><g transform="translate(153.13085, 303.729237)"><path style="stroke:none" d="M 1.109375 0 L 1.109375 -12.5 L 3.859375 -12.5 L 3.859375 -2.5 L 8.34375 -2.5 L 8.34375 0 Z M 1.109375 0 "/></g></g><g style="fill:#ffffff;fill-opacity:1;"><g transform="translate(170.568509, 303.729237)"><path style="stroke:none" d="M 7.90625 -4.78125 L 6.328125 -9.234375 L 4.75 -4.78125 Z M 12.578125 0 L 9.625 0 L 8.71875 -2.515625 L 3.953125 -2.515625 L 3.046875 0 L 0.09375 0 L 5.171875 -12.5 L 7.5 -12.5 Z M 12.578125 0 "/></g></g><g style="fill:#ffffff;fill-opacity:1;"><g transform="translate(191.68351, 303.729237)"><path style="stroke:none" d="M 7.140625 -3.65625 C 7.140625 -4.0625 6.988281 -4.414062 6.6875 -4.71875 C 6.382812 -5.019531 6.023438 -5.171875 5.609375 -5.171875 L 3.859375 -5.171875 L 3.859375 -2.15625 L 5.609375 -2.15625 C 6.023438 -2.15625 6.382812 -2.300781 6.6875 -2.59375 C 6.988281 -2.882812 7.140625 -3.238281 7.140625 -3.65625 Z M 6.265625 -8.875 C 6.265625 -9.28125 6.117188 -9.625 5.828125 -9.90625 C 5.546875 -10.1875 5.207031 -10.328125 4.8125 -10.328125 L 3.859375 -10.328125 L 3.859375 -7.4375 L 4.8125 -7.4375 C 5.207031 -7.4375 5.546875 -7.578125 5.828125 -7.859375 C 6.117188 -8.148438 6.265625 -8.488281 6.265625 -8.875 Z M 9.953125 -3.59375 C 9.953125 -2.507812 9.617188 -1.640625 8.953125 -0.984375 C 8.296875 -0.328125 7.363281 0 6.15625 0 L 1.109375 0 L 1.109375 -12.5 L 5.40625 -12.5 C 6.113281 -12.5 6.726562 -12.359375 7.25 -12.078125 C 7.769531 -11.796875 8.175781 -11.421875 8.46875 -10.953125 C 8.757812 -10.484375 8.90625 -9.957031 8.90625 -9.375 C 8.90625 -8.738281 8.769531 -8.191406 8.5 -7.734375 C 8.238281 -7.273438 7.875 -6.941406 7.40625 -6.734375 C 8.101562 -6.566406 8.703125 -6.210938 9.203125 -5.671875 C 9.703125 -5.128906 9.953125 -4.4375 9.953125 -3.59375 Z M 9.953125 -3.59375 "/></g></g><g style="fill:#ffffff;fill-opacity:1;"><g transform="translate(210.261149, 303.729237)"><path style="stroke:none" d="M 5.953125 -1.953125 C 6.253906 -1.953125 6.578125 -1.992188 6.921875 -2.078125 C 7.265625 -2.171875 7.5625 -2.328125 7.8125 -2.546875 C 8.0625 -2.765625 8.1875 -3.054688 8.1875 -3.421875 C 8.1875 -3.765625 8.050781 -4.039062 7.78125 -4.25 C 7.519531 -4.457031 7.175781 -4.628906 6.75 -4.765625 C 6.320312 -4.898438 5.851562 -5.023438 5.34375 -5.140625 C 4.832031 -5.253906 4.316406 -5.394531 3.796875 -5.5625 C 3.285156 -5.726562 2.816406 -5.945312 2.390625 -6.21875 C 1.960938 -6.488281 1.613281 -6.835938 1.34375 -7.265625 C 1.082031 -7.691406 0.953125 -8.238281 0.953125 -8.90625 C 0.953125 -9.550781 1.085938 -10.109375 1.359375 -10.578125 C 1.628906 -11.054688 1.988281 -11.453125 2.4375 -11.765625 C 2.882812 -12.078125 3.382812 -12.304688 3.9375 -12.453125 C 4.5 -12.609375 5.0625 -12.6875 5.625 -12.6875 C 6.488281 -12.6875 7.289062 -12.550781 8.03125 -12.28125 C 8.78125 -12.007812 9.390625 -11.582031 9.859375 -11 C 10.335938 -10.425781 10.585938 -9.660156 10.609375 -8.703125 L 7.9375 -8.703125 C 7.863281 -9.347656 7.632812 -9.796875 7.25 -10.046875 C 6.875 -10.296875 6.347656 -10.421875 5.671875 -10.421875 C 5.410156 -10.421875 5.132812 -10.378906 4.84375 -10.296875 C 4.550781 -10.210938 4.304688 -10.070312 4.109375 -9.875 C 3.910156 -9.6875 3.8125 -9.4375 3.8125 -9.125 C 3.8125 -8.800781 3.941406 -8.546875 4.203125 -8.359375 C 4.460938 -8.179688 4.804688 -8.03125 5.234375 -7.90625 C 5.671875 -7.78125 6.144531 -7.660156 6.65625 -7.546875 C 7.175781 -7.441406 7.6875 -7.3125 8.1875 -7.15625 C 8.695312 -7 9.164062 -6.78125 9.59375 -6.5 C 10.03125 -6.226562 10.378906 -5.867188 10.640625 -5.421875 C 10.898438 -4.984375 11.03125 -4.421875 11.03125 -3.734375 C 11.03125 -2.992188 10.882812 -2.363281 10.59375 -1.84375 C 10.300781 -1.332031 9.90625 -0.921875 9.40625 -0.609375 C 8.90625 -0.296875 8.34375 -0.0664062 7.71875 0.078125 C 7.101562 0.222656 6.476562 0.296875 5.84375 0.296875 C 4.925781 0.296875 4.066406 0.140625 3.265625 -0.171875 C 2.460938 -0.484375 1.8125 -0.960938 1.3125 -1.609375 C 0.8125 -2.265625 0.554688 -3.101562 0.546875 -4.125 L 3.34375 -4.125 C 3.382812 -3.375 3.660156 -2.820312 4.171875 -2.46875 C 4.691406 -2.125 5.285156 -1.953125 5.953125 -1.953125 Z M 5.953125 -1.953125 "/></g></g><g clip-rule="nonzero" clip-path="url(#e0a3cd763d)"><path style=" stroke:none;fill-rule:nonzero;fill:#ffffff;fill-opacity:1;" d="M 163.960938 97.332031 C 174.242188 98.578125 182.28125 102.753906 188.074219 109.851562 L 188.070312 109.851562 C 183.984375 113.988281 180.492188 119.273438 177.597656 125.710938 L 177.59375 125.722656 C 172.726562 136.804688 171.339844 149.839844 173.421875 164.835938 C 171.121094 164.816406 168.964844 164.804688 166.949219 164.800781 C 168.097656 160.789062 168.773438 156.226562 168.976562 151.113281 C 168.980469 151.082031 168.980469 151.054688 168.980469 151.023438 C 168.613281 136.453125 163.613281 127.535156 153.976562 124.261719 C 151.921875 123.535156 149.894531 123.171875 147.898438 123.171875 C 139.253906 123.171875 131.171875 130 123.652344 143.65625 C 123.636719 143.6875 123.621094 143.714844 123.605469 143.746094 C 121.886719 147.492188 120.351562 151.265625 118.996094 155.070312 C 117.960938 146.59375 120.097656 137.1875 125.410156 126.855469 C 137.429688 107.855469 150.28125 98.015625 163.957031 97.332031 Z M 189.742188 112.066406 C 195.4375 120.253906 198.585938 131.765625 199.1875 146.601562 L 199.183594 146.601562 C 198.902344 153.054688 198.160156 159.25 196.953125 165.179688 C 189.125 165.027344 182.199219 164.921875 176.175781 164.859375 L 176.171875 164.859375 C 174.078125 150.210938 175.378906 137.535156 180.078125 126.828125 C 182.765625 120.851562 185.984375 115.933594 189.738281 112.066406 Z M 212.023438 101.589844 C 222.945312 102.980469 228.816406 108.597656 229.648438 118.4375 L 229.644531 118.4375 C 229.113281 129.164062 223.78125 140.03125 213.644531 151.035156 L 213.59375 151.09375 C 209.433594 156.171875 204.902344 160.886719 200 165.242188 C 199.90625 165.238281 199.8125 165.238281 199.722656 165.234375 L 199.71875 165.234375 C 200.898438 159.289062 201.628906 153.085938 201.902344 146.632812 C 201.90625 146.59375 201.90625 146.554688 201.902344 146.519531 C 201.273438 130.875 197.902344 118.738281 191.789062 110.109375 L 191.785156 110.109375 C 197.433594 105.105469 204.179688 102.265625 212.019531 101.589844 Z M 176.59375 167.5625 C 182.355469 167.625 188.949219 167.730469 196.371094 167.875 L 196.367188 167.875 C 196.324219 168.070312 196.277344 168.265625 196.230469 168.460938 L 196.226562 168.460938 C 194.714844 169.703125 193.164062 170.914062 191.585938 172.089844 L 191.582031 172.089844 L 177.777344 173.628906 C 177.324219 171.570312 176.925781 169.550781 176.59375 167.5625 Z M 148.015625 125.921875 C 149.683594 125.921875 151.367188 126.222656 153.070312 126.824219 L 153.085938 126.832031 C 161.53125 129.691406 165.921875 137.773438 166.261719 151.082031 L 166.257812 151.082031 C 166.046875 156.273438 165.328125 160.84375 164.105469 164.800781 C 154.625 164.816406 148.867188 165.019531 146.828125 165.414062 L 146.824219 165.414062 C 138.785156 166.140625 133.039062 168.953125 129.589844 173.851562 C 127.632812 172.675781 125.890625 171.207031 124.363281 169.445312 L 124.359375 169.445312 C 122.445312 166.558594 121.023438 163.53125 120.085938 160.359375 C 121.730469 155.164062 123.71875 150.027344 126.046875 144.945312 C 133.03125 132.265625 140.355469 125.921875 148.015625 125.921875 Z M 166.078125 167.492188 C 168.449219 167.496094 171.03125 167.511719 173.835938 167.535156 L 173.832031 167.535156 C 174.175781 169.628906 174.585938 171.761719 175.0625 173.929688 L 175.058594 173.929688 L 161.929688 175.390625 C 163.609375 173.105469 164.992188 170.472656 166.074219 167.492188 Z M 163.15625 167.496094 C 161.855469 170.761719 160.152344 173.539062 158.046875 175.824219 L 158.042969 175.824219 L 143.789062 177.410156 C 139.328125 177.382812 135.410156 176.617188 132.03125 175.121094 C 135.046875 171.074219 140.085938 168.742188 147.140625 168.117188 C 147.195312 168.113281 147.246094 168.105469 147.296875 168.09375 C 149.113281 167.71875 154.398438 167.519531 163.15625 167.496094 Z M 187.035156 175.332031 C 184.5625 177.015625 182.019531 178.625 179.398438 180.164062 C 179.042969 178.863281 178.707031 177.570312 178.398438 176.292969 L 178.394531 176.292969 L 187.03125 175.332031 Z M 118.773438 164.785156 C 119.675781 166.921875 120.796875 168.996094 122.136719 171.011719 C 122.167969 171.058594 122.203125 171.105469 122.238281 171.144531 C 124.011719 173.210938 126.039062 174.917969 128.316406 176.269531 C 127.296875 179.261719 127.566406 182.042969 129.128906 184.621094 C 124.164062 184.582031 119.441406 184.550781 114.953125 184.523438 L 114.949219 184.523438 C 115.695312 177.859375 116.96875 171.277344 118.769531 164.785156 Z M 130.773438 177.546875 C 134.542969 179.246094 138.902344 180.109375 143.855469 180.128906 C 143.855469 180.128906 143.859375 180.128906 143.859375 180.128906 C 143.910156 180.128906 143.960938 180.128906 144.011719 180.121094 L 154.484375 178.957031 L 154.488281 178.957031 C 153.898438 179.371094 153.285156 179.761719 152.652344 180.125 C 152.625 180.144531 152.59375 180.160156 152.566406 180.179688 C 148.875 182.6875 142.871094 184.183594 134.554688 184.667969 C 133.894531 184.660156 133.234375 184.65625 132.578125 184.648438 C 130.679688 182.4375 130.078125 180.070312 130.773438 177.546875 Z M 175.675781 176.597656 C 176.066406 178.230469 176.496094 179.886719 176.960938 181.5625 C 175.296875 182.496094 173.601562 183.398438 171.882812 184.277344 L 171.878906 184.277344 C 161.445312 188.628906 153.035156 190.804688 146.648438 190.804688 C 142.6875 190.804688 139.503906 189.96875 137.097656 188.296875 C 137.078125 188.28125 137.054688 188.265625 137.027344 188.253906 C 136.527344 187.945312 136.050781 187.636719 135.605469 187.324219 C 143.925781 186.757812 150.070312 185.140625 154.039062 182.46875 L 154.035156 182.46875 C 155.996094 181.339844 157.761719 179.988281 159.339844 178.414062 L 159.335938 178.414062 L 175.671875 176.597656 Z M 194.605469 174.511719 C 192.464844 181.601562 189.59375 188.277344 185.992188 194.542969 C 183.8125 191.261719 181.894531 187.351562 180.238281 182.824219 C 184.558594 180.3125 188.6875 177.605469 192.617188 174.710938 L 192.613281 174.710938 L 194.089844 174.546875 L 194.085938 174.546875 C 194.257812 174.535156 194.429688 174.523438 194.601562 174.511719 Z M 206.898438 174.03125 C 212.90625 174.03125 217.933594 174.449219 221.980469 175.28125 C 234.640625 177.878906 240.300781 182.757812 238.964844 189.917969 L 238.960938 189.917969 C 233.144531 201.460938 222.234375 207.304688 206.234375 207.449219 C 198.867188 206.828125 192.703125 203.335938 187.734375 196.972656 C 191.902344 189.933594 195.160156 182.382812 197.503906 174.324219 L 197.5 174.324219 C 200.863281 174.128906 203.996094 174.03125 206.898438 174.03125 Z M 177.84375 184.183594 C 179.722656 189.234375 181.925781 193.550781 184.449219 197.132812 C 179.054688 205.851562 172.195312 213.746094 163.867188 220.8125 C 155.710938 227.3125 147.785156 230.5625 140.09375 230.5625 C 137.761719 230.5625 135.449219 230.265625 133.160156 229.667969 L 133.15625 229.667969 C 122.1875 225.757812 115.914062 217.742188 114.34375 205.625 C 114.019531 199.425781 114.132812 193.300781 114.675781 187.242188 C 119.910156 187.273438 125.46875 187.3125 131.351562 187.359375 C 132.496094 188.472656 133.914062 189.539062 135.601562 190.566406 L 135.597656 190.566406 C 138.425781 192.511719 142.097656 193.484375 146.613281 193.484375 C 153.460938 193.484375 162.253906 191.242188 172.988281 186.761719 C 173.019531 186.746094 173.050781 186.734375 173.078125 186.71875 C 174.691406 185.898438 176.277344 185.054688 177.839844 184.183594 Z M 164.007812 94.609375 C 163.988281 94.609375 163.964844 94.609375 163.945312 94.609375 C 149.273438 95.289062 135.652344 105.5625 123.089844 125.4375 C 123.066406 125.472656 123.046875 125.507812 123.03125 125.542969 C 116.375 138.453125 114.445312 150.054688 117.242188 160.347656 L 117.238281 160.347656 C 114.785156 168.273438 113.109375 176.328125 112.214844 184.511719 C 105.292969 184.476562 98.960938 184.457031 93.21875 184.457031 C 71.636719 184.457031 58.398438 184.707031 53.5 185.203125 C 52.753906 185.28125 52.210938 185.945312 52.285156 186.695312 C 52.359375 187.394531 52.949219 187.917969 53.636719 187.917969 C 53.683594 187.917969 53.730469 187.914062 53.777344 187.910156 C 58.589844 187.421875 71.679688 187.175781 93.046875 187.175781 C 98.757812 187.175781 105.058594 187.191406 111.949219 187.226562 L 111.945312 187.226562 C 111.40625 193.347656 111.300781 199.535156 111.628906 205.796875 C 111.632812 205.832031 111.632812 205.863281 111.640625 205.898438 C 113.335938 219.179688 120.222656 227.960938 132.296875 232.246094 C 132.332031 232.261719 132.367188 232.269531 132.40625 232.28125 C 134.960938 232.953125 137.535156 233.289062 140.125 233.289062 C 148.433594 233.289062 156.925781 229.832031 165.59375 222.914062 L 165.625 222.886719 C 173.898438 215.867188 180.761719 208.054688 186.210938 199.453125 L 186.214844 199.453125 C 191.546875 205.945312 198.167969 209.515625 206.074219 210.164062 C 206.109375 210.167969 206.148438 210.171875 206.183594 210.171875 C 206.1875 210.171875 206.191406 210.171875 206.195312 210.171875 C 223.421875 210.03125 235.183594 203.625 241.484375 190.957031 C 241.535156 190.851562 241.574219 190.734375 241.597656 190.617188 C 243.410156 181.597656 237.054688 175.597656 222.527344 172.617188 C 218.308594 171.75 213.089844 171.3125 206.878906 171.3125 C 204.195312 171.3125 201.324219 171.394531 198.265625 171.558594 C 198.40625 171.03125 198.539062 170.503906 198.667969 169.972656 L 198.664062 169.972656 C 199.457031 169.316406 200.242188 168.648438 201.015625 167.96875 L 201.019531 167.96875 C 227.457031 168.527344 263.523438 169.566406 309.21875 171.09375 C 309.234375 171.09375 309.25 171.09375 309.265625 171.09375 C 309.996094 171.09375 310.597656 170.515625 310.625 169.78125 C 310.648438 169.03125 310.058594 168.402344 309.308594 168.378906 C 265.292969 166.90625 230.175781 165.890625 203.953125 165.324219 L 203.949219 165.324219 C 208.125 161.441406 212.023438 157.292969 215.648438 152.875 C 226.261719 141.347656 231.835938 129.875 232.363281 118.457031 C 232.367188 118.398438 232.367188 118.339844 232.363281 118.28125 C 231.429688 106.886719 224.714844 100.417969 212.214844 98.875 C 212.160156 98.867188 212.105469 98.863281 212.046875 98.863281 C 212.011719 98.863281 211.972656 98.867188 211.9375 98.871094 C 203.464844 99.570312 196.191406 102.589844 190.117188 107.921875 C 183.902344 100.371094 175.253906 95.9375 164.167969 94.617188 C 164.117188 94.613281 164.0625 94.609375 164.007812 94.609375 Z M 164.007812 94.609375 "/></g><g clip-rule="nonzero" clip-path="url(#23986fb98d)"><path style=" stroke:none;fill-rule:nonzero;fill:#ffffff;fill-opacity:1;" d="M 54.613281 187.339844 C 54.449219 190.730469 51.574219 193.347656 48.183594 193.183594 C 44.796875 193.023438 42.179688 190.144531 42.339844 186.753906 C 42.503906 183.367188 45.378906 180.75 48.769531 180.914062 C 52.160156 181.074219 54.773438 183.953125 54.613281 187.339844 M 51.898438 187.210938 C 51.988281 185.324219 50.527344 183.71875 48.640625 183.628906 C 46.75 183.539062 45.148438 184.996094 45.058594 186.886719 C 44.964844 188.773438 46.425781 190.378906 48.3125 190.46875 C 50.203125 190.558594 51.804688 189.101562 51.898438 187.210938 Z M 51.898438 187.210938 "/></g><path style=" stroke:none;fill-rule:nonzero;fill:#ffffff;fill-opacity:1;" d="M 310.234375 162.097656 C 309.515625 162.097656 308.914062 162.660156 308.878906 163.386719 C 308.84375 164.105469 308.796875 165.402344 308.742188 167.277344 C 308.714844 168.0625 308.695312 168.535156 308.683594 168.695312 L 308.683594 168.703125 C 308.585938 170.539062 308.425781 173.292969 308.207031 176.972656 C 308.164062 177.722656 308.734375 178.363281 309.484375 178.410156 C 309.511719 178.410156 309.539062 178.414062 309.566406 178.414062 C 310.28125 178.414062 310.878906 177.855469 310.921875 177.132812 C 311.140625 173.460938 311.300781 170.699219 311.398438 168.851562 C 311.410156 168.667969 311.429688 168.175781 311.460938 167.371094 L 311.460938 167.355469 C 311.515625 165.5 311.558594 164.222656 311.59375 163.523438 C 311.632812 162.773438 311.054688 162.136719 310.304688 162.097656 C 310.28125 162.097656 310.257812 162.097656 310.234375 162.097656 Z M 310.234375 162.097656 "/><path style=" stroke:none;fill-rule:nonzero;fill:#ffffff;fill-opacity:1;" d="M 329.894531 174.316406 L 329.890625 174.316406 Z M 310.347656 161.753906 C 309.847656 161.753906 309.367188 162.027344 309.128906 162.503906 C 308.792969 163.175781 309.066406 163.992188 309.738281 164.328125 L 309.746094 164.332031 C 317.585938 168.257812 323.425781 171.15625 327.257812 173.035156 L 327.253906 173.035156 C 319.285156 174.136719 313.351562 175.09375 309.453125 175.910156 C 308.71875 176.0625 308.246094 176.78125 308.402344 177.515625 C 308.535156 178.160156 309.101562 178.597656 309.730469 178.597656 C 309.824219 178.597656 309.914062 178.589844 310.007812 178.570312 C 314.058594 177.722656 320.371094 176.714844 328.949219 175.546875 L 328.996094 175.539062 C 330.15625 175.339844 330.941406 175.148438 331.355469 174.964844 C 331.503906 174.898438 331.632812 174.824219 331.746094 174.742188 C 332.457031 174.222656 332.621094 173.625 332.242188 172.953125 L 332.238281 172.953125 C 332.097656 172.59375 331.832031 172.296875 331.4375 172.054688 C 331.320312 171.984375 331.191406 171.914062 331.050781 171.851562 L 331.046875 171.851562 C 327.546875 170.167969 320.851562 166.851562 310.960938 161.902344 L 310.960938 161.898438 L 310.953125 161.898438 C 310.757812 161.800781 310.550781 161.753906 310.347656 161.753906 Z M 310.347656 161.753906 "/></g></svg>