<svg xmlns="http://www.w3.org/2000/svg" xmlns:xlink="http://www.w3.org/1999/xlink" width="500" zoomAndPan="magnify" viewBox="0 0 375 374.999991" height="500" preserveAspectRatio="xMidYMid meet" version="1.0"><defs><clipPath id="e44813c53f"><path d="M 17 90.128906 L 343 90.128906 L 343 264.128906 L 17 264.128906 Z M 17 90.128906 " clip-rule="nonzero"/></clipPath></defs><rect x="-37.5" width="450" fill="#ffffff" y="-37.499999" height="449.999989" fill-opacity="1"/><rect x="-37.5" width="450" fill="#000000" y="-37.499999" height="449.999989" fill-opacity="1"/><g clip-path="url(#e44813c53f)"><path fill="#ffffff" d="M 157.921875 93.515625 C 170.84375 95.082031 180.945312 100.328125 188.226562 109.25 L 188.222656 109.25 C 183.085938 114.445312 178.699219 121.089844 175.058594 129.179688 L 175.054688 129.195312 C 168.941406 143.121094 167.195312 159.503906 169.8125 178.34375 C 166.921875 178.320312 164.210938 178.308594 161.679688 178.300781 L 161.675781 178.300781 C 163.121094 173.261719 163.972656 167.527344 164.226562 161.101562 C 164.230469 161.066406 164.230469 161.027344 164.230469 160.992188 C 163.769531 142.679688 157.484375 131.46875 145.375 127.359375 C 142.792969 126.445312 140.246094 125.988281 137.738281 125.988281 C 126.871094 125.988281 116.714844 134.570312 107.265625 151.734375 C 107.246094 151.769531 107.226562 151.808594 107.210938 151.84375 C 105.046875 156.550781 103.117188 161.296875 101.414062 166.078125 C 100.113281 155.421875 102.800781 143.601562 109.476562 130.617188 L 109.472656 130.617188 C 124.582031 106.738281 140.730469 94.371094 157.917969 93.515625 Z M 190.320312 112.03125 C 197.480469 122.324219 201.4375 136.789062 202.191406 155.433594 L 202.1875 155.433594 C 201.835938 163.542969 200.902344 171.328125 199.382812 178.78125 C 189.546875 178.589844 180.84375 178.453125 173.269531 178.378906 C 170.636719 159.96875 172.273438 144.039062 178.175781 130.582031 C 181.554688 123.074219 185.601562 116.890625 190.320312 112.03125 Z M 218.320312 98.867188 C 232.046875 100.613281 239.429688 107.671875 240.472656 120.039062 L 240.46875 120.039062 C 239.800781 133.515625 233.097656 147.171875 220.363281 161.007812 L 220.296875 161.082031 C 215.070312 167.457031 209.375 173.382812 203.210938 178.859375 C 203.09375 178.855469 202.980469 178.851562 202.863281 178.851562 L 202.859375 178.851562 C 204.34375 171.375 205.261719 163.582031 205.605469 155.46875 C 205.609375 155.421875 205.609375 155.375 205.605469 155.328125 C 204.816406 135.667969 200.578125 120.414062 192.894531 109.574219 L 192.890625 109.574219 C 199.992188 103.285156 208.464844 99.714844 218.320312 98.867188 Z M 173.800781 181.773438 C 181.042969 181.851562 189.324219 181.984375 198.652344 182.167969 L 198.648438 182.167969 C 198.59375 182.414062 198.535156 182.65625 198.476562 182.902344 L 198.472656 182.902344 C 196.570312 184.464844 194.625 185.984375 192.636719 187.464844 L 175.289062 189.394531 C 174.714844 186.8125 174.21875 184.269531 173.796875 181.773438 Z M 137.882812 129.445312 C 139.980469 129.445312 142.097656 129.824219 144.234375 130.582031 L 144.257812 130.589844 C 154.871094 134.179688 160.390625 144.339844 160.8125 161.0625 L 160.808594 161.0625 C 160.542969 167.585938 159.640625 173.332031 158.105469 178.300781 C 146.191406 178.320312 138.953125 178.582031 136.390625 179.078125 L 136.386719 179.078125 C 126.28125 179.988281 119.0625 183.523438 114.726562 189.679688 C 112.265625 188.199219 110.078125 186.351562 108.15625 184.140625 C 105.75 180.511719 103.960938 176.707031 102.785156 172.722656 C 104.851562 166.195312 107.347656 159.738281 110.277344 153.351562 L 110.273438 153.351562 C 119.054688 137.414062 128.257812 129.445312 137.882812 129.445312 Z M 160.582031 181.6875 C 163.5625 181.691406 166.8125 181.710938 170.332031 181.742188 L 170.328125 181.742188 C 170.761719 184.371094 171.273438 187.050781 171.871094 189.777344 L 155.371094 191.613281 C 157.480469 188.738281 159.21875 185.429688 160.582031 181.6875 Z M 156.914062 181.691406 C 155.277344 185.796875 153.136719 189.285156 150.492188 192.15625 L 150.488281 192.15625 L 132.570312 194.152344 C 126.964844 194.117188 122.042969 193.15625 117.796875 191.273438 L 117.792969 191.273438 C 121.585938 186.1875 127.917969 183.253906 136.785156 182.472656 C 136.851562 182.464844 136.914062 182.457031 136.980469 182.441406 C 139.265625 181.972656 145.90625 181.722656 156.910156 181.691406 Z M 186.921875 191.539062 C 183.816406 193.65625 180.617188 195.679688 177.324219 197.613281 C 176.875 195.972656 176.457031 194.351562 176.066406 192.746094 L 176.0625 192.746094 L 186.917969 191.539062 Z M 101.132812 178.28125 C 102.265625 180.96875 103.675781 183.578125 105.363281 186.109375 C 105.402344 186.167969 105.441406 186.226562 105.488281 186.277344 C 107.71875 188.871094 110.265625 191.015625 113.128906 192.71875 L 113.125 192.71875 C 111.847656 196.476562 112.1875 199.972656 114.148438 203.214844 C 107.910156 203.164062 101.972656 203.125 96.332031 203.089844 L 96.328125 203.089844 C 97.265625 194.710938 98.867188 186.441406 101.132812 178.28125 Z M 116.21875 194.324219 C 120.949219 196.460938 126.429688 197.542969 132.652344 197.570312 C 132.65625 197.570312 132.660156 197.570312 132.660156 197.570312 C 132.726562 197.570312 132.789062 197.566406 132.851562 197.558594 L 146.015625 196.09375 C 145.277344 196.617188 144.507812 197.105469 143.710938 197.5625 C 143.675781 197.585938 143.636719 197.609375 143.601562 197.632812 C 138.960938 200.785156 131.417969 202.664062 120.96875 203.269531 C 120.136719 203.261719 119.308594 203.257812 118.484375 203.25 L 118.480469 203.25 C 116.097656 200.46875 115.34375 197.492188 116.214844 194.324219 Z M 172.644531 193.128906 C 173.136719 195.183594 173.675781 197.261719 174.261719 199.371094 L 174.257812 199.371094 C 172.167969 200.542969 170.039062 201.675781 167.875 202.777344 C 154.765625 208.25 144.195312 210.984375 136.164062 210.984375 C 131.1875 210.984375 127.191406 209.933594 124.164062 207.832031 C 124.136719 207.8125 124.105469 207.792969 124.078125 207.777344 C 123.445312 207.390625 122.847656 207.003906 122.289062 206.609375 L 122.285156 206.609375 C 132.742188 205.898438 140.464844 203.863281 145.453125 200.507812 L 145.449219 200.507812 C 147.914062 199.089844 150.132812 197.390625 152.113281 195.414062 L 152.109375 195.414062 L 172.640625 193.128906 Z M 196.433594 190.503906 C 193.742188 199.414062 190.136719 207.808594 185.609375 215.683594 C 182.871094 211.554688 180.460938 206.644531 178.378906 200.953125 L 178.375 200.953125 C 183.808594 197.796875 188.996094 194.398438 193.933594 190.757812 L 193.929688 190.757812 L 195.785156 190.554688 L 195.78125 190.554688 C 196 190.535156 196.214844 190.519531 196.429688 190.503906 Z M 211.882812 189.902344 C 219.433594 189.902344 225.753906 190.425781 230.835938 191.476562 C 246.75 194.738281 253.863281 200.871094 252.179688 209.871094 L 252.175781 209.871094 C 244.863281 224.375 231.15625 231.71875 211.050781 231.902344 C 201.792969 231.121094 194.042969 226.730469 187.800781 218.734375 L 187.796875 218.734375 C 193.035156 209.890625 197.128906 200.402344 200.078125 190.269531 L 200.074219 190.269531 C 204.296875 190.023438 208.234375 189.902344 211.882812 189.902344 Z M 175.367188 202.664062 C 177.730469 209.007812 180.5 214.433594 183.671875 218.933594 L 183.667969 218.933594 C 176.890625 229.894531 168.269531 239.816406 157.804688 248.695312 C 147.554688 256.863281 137.59375 260.949219 127.925781 260.949219 C 124.996094 260.949219 122.089844 260.574219 119.214844 259.824219 L 119.210938 259.824219 C 105.425781 254.910156 97.542969 244.835938 95.570312 229.609375 L 95.566406 229.609375 C 95.160156 221.820312 95.300781 214.117188 95.984375 206.507812 L 95.988281 206.507812 C 102.5625 206.542969 109.546875 206.59375 116.941406 206.652344 C 118.378906 208.050781 120.160156 209.394531 122.28125 210.683594 L 122.277344 210.683594 C 125.832031 213.128906 130.445312 214.351562 136.121094 214.351562 C 144.730469 214.351562 155.777344 211.535156 169.265625 205.902344 C 169.304688 205.882812 169.34375 205.867188 169.382812 205.847656 C 171.40625 204.816406 173.402344 203.753906 175.367188 202.664062 Z M 157.984375 90.09375 C 157.957031 90.09375 157.929688 90.09375 157.902344 90.09375 C 139.464844 90.945312 122.347656 103.859375 106.558594 128.835938 C 106.53125 128.878906 106.507812 128.921875 106.484375 128.964844 C 98.121094 145.195312 95.695312 159.773438 99.210938 172.707031 L 99.207031 172.707031 C 96.121094 182.667969 94.015625 192.789062 92.890625 203.074219 C 84.191406 203.027344 76.234375 203.007812 69.019531 203.007812 C 41.894531 203.007812 25.257812 203.320312 19.105469 203.945312 C 18.167969 204.039062 17.484375 204.878906 17.578125 205.816406 C 17.667969 206.699219 18.410156 207.351562 19.277344 207.351562 C 19.335938 207.351562 19.394531 207.351562 19.453125 207.34375 C 25.5 206.730469 41.949219 206.421875 68.804688 206.421875 C 75.980469 206.421875 83.898438 206.445312 92.558594 206.488281 L 92.554688 206.488281 C 91.878906 214.175781 91.746094 221.957031 92.15625 229.824219 C 92.160156 229.867188 92.164062 229.910156 92.167969 229.953125 C 94.304688 246.640625 102.957031 257.679688 118.128906 263.066406 C 118.175781 263.082031 118.21875 263.09375 118.265625 263.105469 C 121.480469 263.953125 124.714844 264.375 127.96875 264.375 C 138.410156 264.375 149.078125 260.027344 159.976562 251.335938 L 160.015625 251.300781 C 170.410156 242.480469 179.035156 232.664062 185.886719 221.851562 L 185.890625 221.851562 C 192.59375 230.011719 200.910156 234.496094 210.847656 235.316406 C 210.894531 235.320312 210.941406 235.320312 210.988281 235.320312 C 210.992188 235.320312 210.996094 235.320312 211 235.320312 C 232.648438 235.144531 247.429688 227.09375 255.347656 211.175781 C 255.414062 211.039062 255.460938 210.898438 255.492188 210.75 C 257.769531 199.414062 249.78125 191.875 231.527344 188.128906 C 226.222656 187.035156 219.664062 186.488281 211.859375 186.488281 C 208.484375 186.488281 204.878906 186.589844 201.035156 186.792969 C 201.210938 186.132812 201.378906 185.46875 201.539062 184.804688 C 202.53125 183.976562 203.515625 183.136719 204.488281 182.289062 L 204.492188 182.289062 C 237.71875 182.984375 283.042969 184.292969 340.472656 186.214844 C 340.492188 186.214844 340.511719 186.214844 340.53125 186.214844 C 341.445312 186.214844 342.207031 185.488281 342.234375 184.5625 C 342.269531 183.621094 341.527344 182.832031 340.585938 182.796875 C 285.269531 180.949219 241.136719 179.671875 208.183594 178.960938 L 208.179688 178.960938 C 213.425781 174.085938 218.328125 168.871094 222.882812 163.320312 L 222.878906 163.320312 C 236.21875 148.832031 243.222656 134.410156 243.886719 120.058594 C 243.890625 119.988281 243.890625 119.914062 243.882812 119.84375 C 242.714844 105.523438 234.273438 97.394531 218.566406 95.453125 C 218.496094 95.445312 218.425781 95.441406 218.355469 95.441406 C 218.308594 95.441406 218.261719 95.441406 218.214844 95.445312 C 207.566406 96.328125 198.425781 100.121094 190.792969 106.824219 C 182.984375 97.335938 172.113281 91.761719 158.183594 90.105469 C 158.117188 90.097656 158.050781 90.09375 157.984375 90.09375 Z M 157.984375 90.09375 " fill-opacity="1" fill-rule="nonzero"/></g><path fill="#ffffff" d="M 20.503906 206.628906 C 20.300781 210.890625 16.683594 214.175781 12.425781 213.972656 C 8.164062 213.769531 4.878906 210.152344 5.082031 205.894531 C 5.285156 201.636719 8.902344 198.347656 13.160156 198.550781 C 17.417969 198.753906 20.707031 202.371094 20.503906 206.628906 M 17.089844 206.46875 C 17.203125 204.09375 15.371094 202.078125 12.996094 201.964844 C 10.625 201.851562 8.605469 203.683594 8.492188 206.058594 C 8.378906 208.429688 10.214844 210.449219 12.585938 210.5625 C 14.960938 210.675781 16.976562 208.839844 17.089844 206.46875 Z M 17.089844 206.46875 " fill-opacity="1" fill-rule="nonzero"/><path fill="#ffffff" d="M 341.75 174.90625 C 340.84375 174.90625 340.089844 175.617188 340.042969 176.527344 C 340 177.429688 339.941406 179.058594 339.875 181.417969 C 339.835938 182.402344 339.8125 182.996094 339.800781 183.199219 L 339.800781 183.207031 C 339.675781 185.515625 339.476562 188.976562 339.199219 193.597656 C 339.144531 194.542969 339.863281 195.351562 340.804688 195.40625 C 340.839844 195.410156 340.875 195.410156 340.90625 195.410156 C 341.804688 195.410156 342.558594 194.710938 342.613281 193.800781 C 342.886719 189.183594 343.085938 185.714844 343.210938 183.394531 C 343.222656 183.164062 343.25 182.542969 343.289062 181.53125 L 343.289062 181.515625 C 343.355469 179.183594 343.414062 177.578125 343.457031 176.699219 C 343.503906 175.757812 342.777344 174.957031 341.835938 174.910156 C 341.804688 174.90625 341.777344 174.90625 341.75 174.90625 Z M 341.75 174.90625 " fill-opacity="1" fill-rule="nonzero"/><path fill="#ffffff" d="M 366.457031 190.261719 L 366.453125 190.261719 Z M 341.890625 174.472656 C 341.261719 174.472656 340.660156 174.820312 340.359375 175.417969 C 339.9375 176.261719 340.28125 177.289062 341.125 177.710938 L 341.132812 177.714844 C 350.988281 182.648438 358.324219 186.292969 363.140625 188.652344 L 363.136719 188.652344 C 353.121094 190.035156 345.664062 191.238281 340.765625 192.261719 C 339.84375 192.457031 339.25 193.359375 339.441406 194.285156 C 339.613281 195.089844 340.320312 195.644531 341.113281 195.644531 C 341.230469 195.644531 341.347656 195.632812 341.464844 195.609375 C 346.554688 194.542969 354.488281 193.277344 365.265625 191.808594 L 365.328125 191.796875 C 366.78125 191.546875 367.769531 191.304688 368.292969 191.074219 C 368.476562 190.992188 368.640625 190.902344 368.78125 190.796875 C 369.675781 190.140625 369.882812 189.390625 369.40625 188.546875 L 369.402344 188.546875 C 369.226562 188.097656 368.886719 187.722656 368.390625 187.417969 C 368.246094 187.328125 368.085938 187.246094 367.90625 187.164062 L 367.902344 187.164062 C 363.507812 185.050781 355.09375 180.882812 342.660156 174.660156 L 342.652344 174.65625 C 342.40625 174.53125 342.144531 174.472656 341.890625 174.472656 Z M 341.890625 174.472656 " fill-opacity="1" fill-rule="nonzero"/></svg>